
<svg xmlns="http://www.w3.org/2000/svg" id="Layer_2" data-name="Layer 2" width="136.533" height="36.96" viewBox="0 0 136.533 36.96"><g id="Layer_1" data-name="Layer 1"><path id="Path_14103" data-name="Path 14103" d="M735.35,172.873v-16.8h2.16l10.267,13.52v-13.52h2.053v16.8H747.67L737.4,159.22v13.653Zm31.2-.667a12.469,12.469,0,0,1-4.373.773q-9.12,0-9.12-8.747,0-8.28,8.8-8.294a15.583,15.583,0,0,1,4.694.694V158.5a12.206,12.206,0,0,0-4.453-.827c-4.588,0-6.881,2.185-6.881,6.507,0,4.667,2.266,6.987,6.772,6.987a11.935,11.935,0,0,0,2.4-.293v-5.625h2.16V172.2Zm3.467-5.814V156.071h2.16v10.322c0,3.227,1.6,4.853,4.827,4.853,3.2,0,4.827-1.627,4.827-4.853V156.071h2.161v10.322c0,4.4-2.32,6.613-6.987,6.613s-6.988-2.215-6.988-6.615Zm20-10.322v15.04h8.8v1.762h-10.96v-16.8Zm11.92,16.8H799.67l8.346-19.013,8.347,19.013h-2.4l-2.16-5.28h-5.547l.587-1.765h4.24l-3.147-7.6Zm16.747,0v-16.8h7.173c3.2,0,4.8,1.333,4.8,4.027,0,2.185-1.573,3.813-4.693,4.853l5.76,7.922h-2.854l-5.333-7.549V163.91c3.2-.507,4.827-1.733,4.827-3.707,0-1.547-.88-2.32-2.667-2.32h-4.8v14.989Z" transform="translate(-695.19 -145.457)" fill="#b52e31"></path><path id="Path_14104" data-name="Path 14104" d="M0,6.133,17.2,0,34.853,6.027,32,28.773,17.2,36.959,2.64,28.88Z" fill="#e23237"></path><path id="Path_14105" data-name="Path 14105" d="M332.593,6.027,314.94,0V36.96l14.8-8.187,2.854-22.746Z" transform="translate(-297.74)" fill="#b52e31"></path><path id="Path_14106" data-name="Path 14106" d="M129.86,79.1l-10.72,23.84,4-.08,2.16-5.386h9.574l2.348,5.44,3.81.08Zm.027,7.653,3.627,7.573h-6.8Z" transform="translate(-112.633 -74.78)" fill="#fff"></path></g></svg>