
<svg xmlns="http://www.w3.org/2000/svg" xmlns:xlink="http://www.w3.org/1999/xlink" id="Group_26210" data-name="Group 26210" width="89.814" height="53.708" viewBox="0 0 89.814 53.708"><defs><clipPath id="clip-path"><rect id="Rectangle_4486" data-name="Rectangle 4486" width="89.814" height="53.708" fill="none"></rect></clipPath></defs><g id="Group_26209" data-name="Group 26209" clip-path="url(#clip-path)"><path id="Path_14186" data-name="Path 14186" d="M34.029,19.506a9.038,9.038,0,0,0,.329,2.659,15.99,15.99,0,0,0,.956,2.151,1.3,1.3,0,0,1,.209.687,1.183,1.183,0,0,1-.568.9l-1.882,1.255a1.432,1.432,0,0,1-.777.269A1.374,1.374,0,0,1,31.4,27a9.241,9.241,0,0,1-1.075-1.4c-.3-.508-.6-1.075-.926-1.762a11.035,11.035,0,0,1-8.782,4.122,8.185,8.185,0,0,1-5.974-2.151,7.674,7.674,0,0,1-2.21-5.735A7.69,7.69,0,0,1,15.15,13.92a10.867,10.867,0,0,1,7.318-2.33,23.651,23.651,0,0,1,3.166.239c1.105.149,2.24.388,3.435.657V10.306c0-2.27-.478-3.853-1.4-4.779C26.71,4.6,25.1,4.152,22.8,4.152a13.591,13.591,0,0,0-3.226.388,23.8,23.8,0,0,0-3.226,1.016,8.571,8.571,0,0,1-1.045.388,1.832,1.832,0,0,1-.478.09c-.418,0-.627-.3-.627-.926V3.644A1.89,1.89,0,0,1,14.4,2.6a2.237,2.237,0,0,1,.836-.627A17.2,17.2,0,0,1,19,.627,18.11,18.11,0,0,1,23.664.06c3.555,0,6.153.807,7.826,2.42,1.643,1.613,2.479,4.062,2.479,7.348v9.678ZM21.9,24.046a9.681,9.681,0,0,0,3.077-.538A6.656,6.656,0,0,0,27.816,21.6a4.741,4.741,0,0,0,1.016-1.912,10.724,10.724,0,0,0,.3-2.6V15.832a24.946,24.946,0,0,0-2.748-.508,22.509,22.509,0,0,0-2.808-.179,6.886,6.886,0,0,0-4.451,1.195,4.163,4.163,0,0,0-1.464,3.435,4.17,4.17,0,0,0,1.105,3.166A4.142,4.142,0,0,0,21.9,24.046m23.987,3.226a1.668,1.668,0,0,1-1.135-.3,2.435,2.435,0,0,1-.627-1.165l-7.02-23.09a5.233,5.233,0,0,1-.269-1.195.655.655,0,0,1,.717-.747h2.927a1.656,1.656,0,0,1,1.165.3,2.444,2.444,0,0,1,.6,1.165l5.018,19.775L51.922,2.24a2.1,2.1,0,0,1,.568-1.165,2.055,2.055,0,0,1,1.195-.3h2.39a1.8,1.8,0,0,1,1.195.3,2.013,2.013,0,0,1,.568,1.165l4.72,20.014L67.724,2.24a2.562,2.562,0,0,1,.6-1.165,1.949,1.949,0,0,1,1.165-.3h2.778a.664.664,0,0,1,.747.747,2.979,2.979,0,0,1-.06.478,4.25,4.25,0,0,1-.209.747l-7.2,23.09A2.29,2.29,0,0,1,64.916,27a1.911,1.911,0,0,1-1.135.3H61.212a1.8,1.8,0,0,1-1.195-.3,2.118,2.118,0,0,1-.568-1.195L54.819,6.542l-4.6,19.237a2.332,2.332,0,0,1-.568,1.195,1.852,1.852,0,0,1-1.195.3Zm38.385.807a19.767,19.767,0,0,1-4.6-.538,13.589,13.589,0,0,1-3.435-1.195,2.152,2.152,0,0,1-.926-.836,2.108,2.108,0,0,1-.179-.836V23.15c0-.627.239-.926.687-.926a1.692,1.692,0,0,1,.538.09c.179.06.448.179.747.3a16.248,16.248,0,0,0,3.286,1.045,17.939,17.939,0,0,0,3.555.358,8.06,8.06,0,0,0,4.361-.986,3.217,3.217,0,0,0,1.553-2.838,2.909,2.909,0,0,0-.807-2.091,7.5,7.5,0,0,0-3.017-1.553L81.7,15.2a9.111,9.111,0,0,1-4.779-3.047A7.117,7.117,0,0,1,75.43,7.826a6.648,6.648,0,0,1,.807-3.316,7.68,7.68,0,0,1,2.151-2.449A9.481,9.481,0,0,1,81.494.508,13.019,13.019,0,0,1,85.258,0a15,15,0,0,1,2,.119c.687.09,1.314.209,1.942.329.6.149,1.165.3,1.7.478a6.519,6.519,0,0,1,1.255.538,2.583,2.583,0,0,1,.9.747,1.61,1.61,0,0,1,.269.986V4.6c0,.627-.239.956-.687.956A3.107,3.107,0,0,1,91.5,5.2a13.666,13.666,0,0,0-5.735-1.165,7.71,7.71,0,0,0-3.973.836,2.884,2.884,0,0,0-1.4,2.659,2.821,2.821,0,0,0,.9,2.121,8.923,8.923,0,0,0,3.286,1.643l4.242,1.344a9.085,9.085,0,0,1,4.63,2.868,6.759,6.759,0,0,1,1.374,4.182,7.679,7.679,0,0,1-.777,3.465,8.034,8.034,0,0,1-2.181,2.629,9.629,9.629,0,0,1-3.316,1.673,14.2,14.2,0,0,1-4.272.627" transform="translate(-8.718)" fill="#252f3e"></path><path id="Path_14187" data-name="Path 14187" d="M81.2,121.205c-9.828,7.259-24.106,11.112-36.383,11.112A65.821,65.821,0,0,1,.4,115.38c-.926-.836-.09-1.972,1.016-1.314a89.58,89.58,0,0,0,44.448,11.8,88.7,88.7,0,0,0,33.9-6.93c1.643-.747,3.047,1.075,1.434,2.27m4.092-4.66c-1.255-1.613-8.3-.777-11.5-.388-.956.119-1.105-.717-.239-1.344C79.168,110.87,88.4,112,89.474,113.319c1.075,1.344-.3,10.574-5.556,15-.807.687-1.583.329-1.225-.568,1.195-2.957,3.853-9.619,2.6-11.2" transform="translate(0 -78.609)" fill="#f90"></path></g></svg>