
<svg xmlns="http://www.w3.org/2000/svg" width="54.692" height="77.232" viewBox="0 0 54.692 77.232"><g id="Group_2506" data-name="Group 2506" transform="translate(-3048 -9198.772)"><g id="Group_2475" data-name="Group 2475" transform="translate(3055 9198.772)"><path id="Path_14449" data-name="Path 14449" d="M55.722,53.846c-4.08,0-8.1.031-12.177.031a.715.715,0,0,1-.345-.094V53.6c.22-.22.126-.534.126-.816V10.1c0-.282.094-.534-.126-.816V9.094A1.81,1.81,0,0,1,43.639,9H55.314c.126,0,.282.031.345.031,0,.314.031.659.031.973V43.082C55.69,46.754,55.69,50.3,55.722,53.846Z" transform="translate(-29.643 -9)" fill="#2d72b7"></path><path id="Path_14450" data-name="Path 14450" d="M83.031,54.173V10.488c0-.314,0-.659-.031-.973.188-.094.282,0,.408.094,2.73,1.381,5.492,2.73,8.222,4.111a1.116,1.116,0,0,1,.534.408c-.22.22-.126.534-.126.816V48.869c0,.282-.094.534.126.816a.67.67,0,0,1-.439.345c-2.7,1.349-5.429,2.7-8.1,4.08C83.408,54.079,83.22,54.2,83.031,54.173Z" transform="translate(-56.952 -9.326)" fill="#5294ce"></path><path id="Path_14451" data-name="Path 14451" d="M23.85,53.994v.188a.464.464,0,0,1-.408-.126c-2.7-1.349-5.429-2.7-8.1-4.08-.126-.031-.22-.188-.345-.282V13.981a9.238,9.238,0,0,1,1.977-1.067c2.071-1.036,4.174-2.1,6.214-3.138.22-.094.408-.314.659-.282v44.5Z" transform="translate(-10.293 -9.336)" fill="#205b98"></path><path id="Path_14452" data-name="Path 14452" d="M4.645,23.8V59.514C3.17,57.819,1.695,56.124.22,54.4A1.118,1.118,0,0,1,0,53.645c0-8,0-15.974,0-23.977a.941.941,0,0,1,.22-.753C1.695,27.221,3.17,25.495,4.645,23.8Z" transform="translate(0 -19.155)" fill="#1c4870"></path><path id="Path_14453" data-name="Path 14453" d="M111.882,59.557c-.22-.22-.126-.534-.126-.816V24.816c0-.282-.094-.534.126-.816,1.444,1.663,2.856,3.327,4.3,4.959a1.258,1.258,0,0,1,.282.847V53.751a1.4,1.4,0,0,1-.314.91C114.706,56.293,113.263,57.894,111.882,59.557Z" transform="translate(-76.67 -19.293)" fill="#2d72b7"></path><path id="Path_14454" data-name="Path 14454" d="M43.2,54.55V10.3c.22.22.126.534.126.816V53.8C43.326,54.016,43.42,54.33,43.2,54.55Z" transform="translate(-29.643 -9.892)" fill="#5294ce"></path></g><g id="Group_2498" data-name="Group 2498" transform="translate(-49.635 46.636)"><g id="Layer_2" transform="translate(3097.635 9205.966)"><g id="Layer_1-2"><path id="path12" d="M288.206,40.652V39.42a.305.305,0,0,1,.3-.32h5.592a.305.305,0,0,1,.32.3V40.48a1.724,1.724,0,0,1-.419.788l-2.882,4.114a5.95,5.95,0,0,1,3.178.69.591.591,0,0,1,.3.493v1.33a.316.316,0,0,1-.419.3,6.374,6.374,0,0,0-5.888,0c-.2.1-.394-.1-.394-.3V46.638a1.534,1.534,0,0,1,.2-.862L291.409,41H288.5a.371.371,0,0,1-.3-.345h0" transform="translate(-256.597 -38.878)" fill="#201c1d"></path><path id="path14" d="M200.8,47.914h-1.7a.3.3,0,0,1-.3-.3V38.947a.326.326,0,0,1,.32-.32H200.7a.321.321,0,0,1,.32.3v1.133h.025a2.213,2.213,0,0,1,2.217-1.6,2.254,2.254,0,0,1,2.193,1.6,2.506,2.506,0,0,1,3.227-1.453,2.865,2.865,0,0,1,1.084.788,4.563,4.563,0,0,1,.419,2.71v5.494a.326.326,0,0,1-.32.32h-1.7a.305.305,0,0,1-.3-.32V42.987a11.952,11.952,0,0,0-.049-1.626.858.858,0,0,0-.985-.739,1.156,1.156,0,0,0-1.01.714,5.385,5.385,0,0,0-.148,1.675v4.607a.326.326,0,0,1-.32.32h-1.7a.305.305,0,0,1-.3-.32V42.987c0-.961.148-2.39-1.035-2.39s-1.158,1.38-1.158,2.39v4.607a.417.417,0,0,1-.37.32h0" transform="translate(-189.461 -38.38)" fill="#201c1d"></path><path id="path16" d="M322.118,38.5c2.513,0,3.868,2.168,3.868,4.9,0,2.661-1.5,4.755-3.868,4.755-2.464,0-3.818-2.168-3.818-4.853s1.38-4.8,3.818-4.8m.025,1.774c-1.256,0-1.33,1.7-1.33,2.759s-.025,3.326,1.306,3.326,1.38-1.823,1.38-2.932a8.239,8.239,0,0,0-.246-2.316,1.045,1.045,0,0,0-1.109-.838" transform="translate(-279.522 -38.426)" fill="#201c1d"></path><path id="path18" d="M356.671,47.956H355a.305.305,0,0,1-.3-.32V38.965a.34.34,0,0,1,.32-.3H356.6a.293.293,0,0,1,.3.246v1.33h.025a2.3,2.3,0,0,1,2.316-1.749,2.2,2.2,0,0,1,1.971,1.035,5.531,5.531,0,0,1,.443,2.71v5.444a.341.341,0,0,1-.32.271h-1.7a.315.315,0,0,1-.3-.271v-4.73c0-.936.1-2.34-1.059-2.34a1.139,1.139,0,0,0-.985.69,4.154,4.154,0,0,0-.271,1.651v4.681a.331.331,0,0,1-.345.32" transform="translate(-306.955 -38.423)" fill="#201c1d"></path><path id="Path_14447" data-name="Path 14447" d="M168.9,46.133a2.277,2.277,0,0,1-.641-1.577V41.945c0-1.109.074-2.143-.739-2.907a3.867,3.867,0,0,0-2.562-.838c-1.6,0-3.4.591-3.794,2.587a.289.289,0,0,0,.246.345h0l1.651.172a.367.367,0,0,0,.3-.32,1.282,1.282,0,0,1,1.355-1.01,1.154,1.154,0,0,1,.961.443,2.081,2.081,0,0,1,.2,1.232v.222a11.508,11.508,0,0,0-3.178.591,2.833,2.833,0,0,0-1.8,2.759,2.406,2.406,0,0,0,2.537,2.636,3.347,3.347,0,0,0,2.784-1.232,3.86,3.86,0,0,0,.961,1.133.335.335,0,0,0,.394-.049h0c.345-.3.961-.838,1.306-1.133a.291.291,0,0,0,.025-.443Zm-3.326-.764a1.385,1.385,0,0,1-1.182.764c-.641,0-1.035-.493-1.035-1.232,0-1.429,1.306-1.7,2.513-1.7v.37A2.98,2.98,0,0,1,165.573,45.369Z" transform="translate(-160.89 -38.2)" fill="#201c1d"></path><path id="Path_14448" data-name="Path 14448" d="M259,46.133a2.277,2.277,0,0,1-.641-1.577V41.945c0-1.109.074-2.143-.739-2.907a3.867,3.867,0,0,0-2.562-.838c-1.6,0-3.4.591-3.794,2.587a.291.291,0,0,0,.222.345h.025l1.651.172a.367.367,0,0,0,.3-.32,1.282,1.282,0,0,1,1.355-1.01,1.154,1.154,0,0,1,.961.443,2.082,2.082,0,0,1,.2,1.232v.222a11.508,11.508,0,0,0-3.178.591,2.867,2.867,0,0,0-1.8,2.759,2.406,2.406,0,0,0,2.537,2.636,3.377,3.377,0,0,0,2.784-1.232,3.86,3.86,0,0,0,.961,1.133.335.335,0,0,0,.394-.049h0c.345-.3.961-.838,1.306-1.133a.31.31,0,0,0,.025-.443Zm-3.35-.764a1.385,1.385,0,0,1-1.182.764c-.641,0-1.035-.493-1.035-1.232,0-1.429,1.306-1.7,2.513-1.7v.37h0a2.98,2.98,0,0,1-.3,1.8Z" transform="translate(-228.794 -38.2)" fill="#201c1d"></path></g></g><g id="Group_2476" data-name="Group 2476" transform="translate(3097.638 9218.456)"><path id="Path_14455" data-name="Path 14455" d="M160.9,100.268V89.7h3.843a3.97,3.97,0,0,1,1.774.3,2.275,2.275,0,0,1,.936.985,3.34,3.34,0,0,1,.37,1.6,2.926,2.926,0,0,1-.616,1.946,2.836,2.836,0,0,1-1.823.936,3.224,3.224,0,0,1,.739.591,7.661,7.661,0,0,1,.911,1.355l1.5,2.882h-1.453L165.926,98.1a13.31,13.31,0,0,0-1.01-1.724,1.8,1.8,0,0,0-.665-.591,2.215,2.215,0,0,0-.887-.148h-1.33v4.681H160.9Zm1.133-5.912H164.5a3.2,3.2,0,0,0,1.232-.2,1.593,1.593,0,0,0,.665-.616,1.745,1.745,0,0,0,.246-.961,1.618,1.618,0,0,0-.468-1.256,1.941,1.941,0,0,0-1.38-.468h-2.734v3.5Z" transform="translate(-160.9 -89.503)" fill="#201c1d"></path><path id="Path_14456" data-name="Path 14456" d="M196.2,100.268V89.7h2.981a5.622,5.622,0,0,1,1.675.2,2.941,2.941,0,0,1,1.306.912,4.6,4.6,0,0,1,.862,1.7,8.683,8.683,0,0,1,.32,2.414,7.779,7.779,0,0,1-.517,3.03,3.559,3.559,0,0,1-1.355,1.774,3.976,3.976,0,0,1-2.168.517h-3.1Zm1.158-1.256h1.848a3.224,3.224,0,0,0,1.7-.37,2.262,2.262,0,0,0,.887-1.158,7.249,7.249,0,0,0,.419-2.562,5.814,5.814,0,0,0-.443-2.513,2.5,2.5,0,0,0-1.109-1.232,3.581,3.581,0,0,0-1.453-.2h-1.823v8.031Z" transform="translate(-187.504 -89.503)" fill="#201c1d"></path><path id="Path_14457" data-name="Path 14457" d="M230.2,96.266l1.084-.123a3.05,3.05,0,0,0,.394,1.355,2.143,2.143,0,0,0,.887.788,2.728,2.728,0,0,0,1.281.3,2.323,2.323,0,0,0,1.577-.493,1.7,1.7,0,0,0,.567-1.306,1.653,1.653,0,0,0-.2-.813,1.718,1.718,0,0,0-.616-.567,10.582,10.582,0,0,0-1.8-.641,6.442,6.442,0,0,1-1.749-.739,2.7,2.7,0,0,1-.813-.936,3,3,0,0,1,.542-3.375A3.055,3.055,0,0,1,233.6,88.9a3.752,3.752,0,0,1,1.7.37,2.674,2.674,0,0,1,1.133,1.084,3.313,3.313,0,0,1,.419,1.675l-1.109.1a2.247,2.247,0,0,0-.616-1.527,2.1,2.1,0,0,0-1.478-.493,2.207,2.207,0,0,0-1.478.443,1.415,1.415,0,0,0-.517,1.133,1.282,1.282,0,0,0,.37.985,4.377,4.377,0,0,0,1.675.714,11.842,11.842,0,0,1,1.8.616,3,3,0,0,1,1.207,1.059,2.94,2.94,0,0,1,.394,1.577,3.352,3.352,0,0,1-.419,1.651,2.849,2.849,0,0,1-1.158,1.133,3.6,3.6,0,0,1-1.749.394,3.381,3.381,0,0,1-3.572-3.547Z" transform="translate(-213.128 -88.9)" fill="#201c1d"></path></g></g></g></svg>