
<svg xmlns="http://www.w3.org/2000/svg" id="azure-full" width="181.945" height="51.391" viewBox="0 0 181.945 51.391"><path id="Path_14131" data-name="Path 14131" d="M376.939,109.531H371.45l-2.734-7.462h-11.8l-2.528,7.462H348.9L360.083,80.3h5.468Zm-9.5-11.409-4.214-11.614a11.687,11.687,0,0,1-.411-1.871,14.451,14.451,0,0,1-.411,1.871L358.4,98.122Zm28.7-7.462L384.75,105.79h11.388v3.741H377.987V107.7l11.82-15.356H379.262V88.6h17.082V90.66Zm22.756,18.871h-4.851v-3.31a7.082,7.082,0,0,1-6.537,3.741c-5.057,0-7.585-2.9-7.585-8.922V88.6h4.851V100.63c0,3.741,1.48,5.591,4.42,5.591a4.6,4.6,0,0,0,3.577-1.46,6.6,6.6,0,0,0,1.46-4.152v-12h4.851Zm18.542-16.383a4.535,4.535,0,0,0-2.528-.617,4.41,4.41,0,0,0-3.577,1.871,7.706,7.706,0,0,0-1.46,5.18v9.949h-4.851V88.6h4.851v4.358a8.133,8.133,0,0,1,2.117-3.515,4.835,4.835,0,0,1,3.33-1.254,4.236,4.236,0,0,1,1.891.411Zm21.5,7.256H444.385a5.789,5.789,0,0,0,1.891,4.564,6.834,6.834,0,0,0,4.851,1.665,10.153,10.153,0,0,0,6.352-2.076V108.3a13.664,13.664,0,0,1-7.606,1.871,9.929,9.929,0,0,1-7.38-2.919c-1.891-1.871-2.734-4.564-2.734-8.079a11.011,11.011,0,0,1,2.919-7.873,9.639,9.639,0,0,1,7.38-3.1,8.4,8.4,0,0,1,6.742,2.693c1.686,1.871,2.323,4.358,2.323,7.668Zm-4.625-3.31a5.584,5.584,0,0,0-1.254-3.947,3.955,3.955,0,0,0-3.371-1.46,4.6,4.6,0,0,0-3.577,1.46,6.277,6.277,0,0,0-1.686,3.947Z" transform="translate(-277.179 -63.793)" fill="#008ad7"></path><path id="Path_14132" data-name="Path 14132" d="M40.907,7.75,31.164,27.381,48.328,47.259,16.466,50.877l49.418.514ZM38.975,0,16.61,18.727,0,46.745l14.143-1.418Z" fill="#008ad7"></path></svg>