
<svg xmlns="http://www.w3.org/2000/svg" width="106.467" height="79.78" viewBox="0 0 106.467 79.78"><g id="digital-ocean" transform="translate(0 0.027)"><path id="Path_14133" data-name="Path 14133" d="M83.352,42.937v10.3a26.724,26.724,0,0,0,25.293-35.13A25.776,25.776,0,0,0,91.83,1.3,26.724,26.724,0,0,0,56.7,26.59H67A16.385,16.385,0,0,1,89.347,11.367a15.5,15.5,0,0,1,9.227,9.227A16.379,16.379,0,0,1,83.352,42.937L83.4,32.68h-10.3V42.937ZM73.094,50.853H65.225V42.937h7.916l-.047,7.916Zm-7.869-7.916H58.574v-6.6h6.6v6.6Z" transform="translate(-30.142 0)" fill="#0080ff"></path><path id="Path_14134" data-name="Path 14134" d="M9.181,134.193a8.5,8.5,0,0,0-4.965-1.405H0V146.23H4.262a8.218,8.218,0,0,0,4.965-1.5,5.287,5.287,0,0,0,1.733-2.155,7.436,7.436,0,0,0,.609-3.185,7.361,7.361,0,0,0-.609-3.138A5.483,5.483,0,0,0,9.181,134.193Zm-6.7.89H3.794a6.331,6.331,0,0,1,3.607.89q1.546.913,1.546,3.513c0,1.733-.515,3-1.546,3.654h0a6.331,6.331,0,0,1-3.607.89H2.483ZM13.256,146.23h2.389v-9.462H13.256v9.462Zm1.218-13.63a1.457,1.457,0,0,0-1.03,2.482,1.452,1.452,0,0,0,2.483-1.03,1.439,1.439,0,0,0-1.452-1.452Zm9.836,4.965a3.549,3.549,0,0,0-2.389-1.03,4.276,4.276,0,0,0-3.232,1.358,4.745,4.745,0,0,0-1.265,3.419,4.9,4.9,0,0,0,1.265,3.419,4.379,4.379,0,0,0,3.279,1.358,3.516,3.516,0,0,0,2.342-.749v.234A2.676,2.676,0,0,1,23.7,147.4a2.33,2.33,0,0,1-1.733.656,2.973,2.973,0,0,1-2.623-1.546l-1.639,1.546.047.047a5.408,5.408,0,0,0,1.593,1.452,4.717,4.717,0,0,0,2.67.7,4.517,4.517,0,0,0,3.419-1.311,4.708,4.708,0,0,0,1.265-3.466v-8.619H24.357v.7Zm-.609,5.574a2.264,2.264,0,0,1-3.279,0,2.658,2.658,0,0,1-.609-1.874,2.737,2.737,0,0,1,.609-1.874,2.264,2.264,0,0,1,3.279,0,2.737,2.737,0,0,1,.609,1.874A2.9,2.9,0,0,1,23.7,143.139Zm5.012,3.091H31.1v-9.462H28.713Zm1.218-13.63a1.457,1.457,0,0,0-1.03,2.482,1.453,1.453,0,0,0,1.03.422,1.377,1.377,0,0,0,1.03-.422,1.453,1.453,0,0,0,.422-1.03,1.377,1.377,0,0,0-.422-1.03A1.453,1.453,0,0,0,29.931,132.6Zm6.37,1.593H33.959v2.576H32.6v2.155h1.358v3.935a3.66,3.66,0,0,0,.749,2.623,3.458,3.458,0,0,0,2.576.749,9.793,9.793,0,0,0,1.171-.047h.094v-2.155l-.8.047a1.628,1.628,0,0,1-1.124-.281,1.912,1.912,0,0,1-.281-1.265v-3.607h2.2v-2.155h-2.2v-2.576Zm10.445,3.279h0a4.455,4.455,0,0,0-2.951-.937,4.914,4.914,0,0,0-2.2.515,4.53,4.53,0,0,0-1.639,1.5L40,138.6l1.546,1.452a2.455,2.455,0,0,1,2.248-1.358,1.985,1.985,0,0,1,1.218.375,1.264,1.264,0,0,1,.468,1.03v.468a5.818,5.818,0,0,0-1.733-.281,4.508,4.508,0,0,0-2.857.843,3.069,3.069,0,0,0-.141,4.543,3.5,3.5,0,0,0,2.3.8,4.083,4.083,0,0,0,2.529-.984v.8h2.342v-6.089A3.862,3.862,0,0,0,46.746,137.471Zm-4.262,5.152a2,2,0,0,1,1.124-.281,5.391,5.391,0,0,1,1.827.328v.937a3,3,0,0,1-2.061.749,1.318,1.318,0,0,1-.937-.281.843.843,0,0,1-.328-.7A.8.8,0,0,1,42.484,142.624Zm7.26,3.607h2.389V132.787H49.744Zm11.007.234a6.932,6.932,0,1,1,6.932-6.932A6.917,6.917,0,0,1,60.751,146.465Zm0-11.429a4.5,4.5,0,1,0,4.5,4.5A4.5,4.5,0,0,0,60.751,135.036Zm15.457,7.822a6.5,6.5,0,0,1-1.218,1.124h0a2.064,2.064,0,0,1-1.218.328,2.107,2.107,0,0,1-1.733-.8,3.238,3.238,0,0,1,0-4.028,2.249,2.249,0,0,1,1.733-.8,3.193,3.193,0,0,1,2.3,1.311l1.593-1.5a4.649,4.649,0,0,0-3.888-1.967A4.6,4.6,0,0,0,70.4,137.94a4.766,4.766,0,0,0-1.405,3.513,4.874,4.874,0,0,0,1.405,3.56,4.6,4.6,0,0,0,3.372,1.405,4.756,4.756,0,0,0,4.075-2.108ZM86,138.08a3.581,3.581,0,0,0-1.358-1.124,4.346,4.346,0,0,0-1.967-.422,3.983,3.983,0,0,0-3.232,1.452,5.465,5.465,0,0,0-1.218,3.56,4.734,4.734,0,0,0,1.312,3.513A4.584,4.584,0,0,0,83,146.418a4.815,4.815,0,0,0,3.935-1.92l.047-.047-1.546-1.5a5.612,5.612,0,0,1-.515.562,3.356,3.356,0,0,1-.7.515A2.593,2.593,0,0,1,83,144.31a2.4,2.4,0,0,1-1.639-.562,2.506,2.506,0,0,1-.7-1.452h6.323v-.89a7.413,7.413,0,0,0-.234-1.78A4.735,4.735,0,0,0,86,138.08Zm-5.2,2.248a2.189,2.189,0,0,1,.609-1.124,1.7,1.7,0,0,1,1.265-.468,1.853,1.853,0,0,1,1.312.468,1.765,1.765,0,0,1,.468,1.124Zm14.38-2.857h0a4.455,4.455,0,0,0-2.951-.937,4.914,4.914,0,0,0-2.2.515,4.53,4.53,0,0,0-1.639,1.5l.047.047,1.546,1.452a2.455,2.455,0,0,1,2.248-1.358,1.985,1.985,0,0,1,1.218.375,1.264,1.264,0,0,1,.468,1.03v.468a5.818,5.818,0,0,0-1.733-.281,4.508,4.508,0,0,0-2.857.843,3.069,3.069,0,0,0-.141,4.543,3.5,3.5,0,0,0,2.3.8,4.083,4.083,0,0,0,2.529-.984v.8h2.342v-6.089A3.862,3.862,0,0,0,95.178,137.471Zm-4.262,5.152a2,2,0,0,1,1.124-.281,5.391,5.391,0,0,1,1.827.328v.937a3,3,0,0,1-2.061.749,1.318,1.318,0,0,1-.937-.281.843.843,0,0,1-.328-.7A.91.91,0,0,1,90.916,142.624Zm14.52-4.965a3.5,3.5,0,0,0-2.764-1.124,3.332,3.332,0,0,0-2.3.8v-.609H98.035v9.462h2.389v-5.246a2.588,2.588,0,0,1,.515-1.686,1.659,1.659,0,0,1,1.405-.609,1.54,1.54,0,0,1,1.265.562,2.384,2.384,0,0,1,.468,1.5v5.48h2.389V140.75A4.8,4.8,0,0,0,105.436,137.659Z" transform="translate(0 -70.505)" fill="#0080ff"></path></g></svg>