
<svg xmlns="http://www.w3.org/2000/svg" width="65.16" height="81.938" viewBox="0 0 65.16 81.938"><g id="Group_2507" data-name="Group 2507" transform="translate(-2909.232 -9198.772)"><path id="Path_14431" data-name="Path 14431" d="M105.4,45.329h.552l9-4.5.15-.212V4.708l-.15-.212-9-4.5h-.559V45.329" transform="translate(2838.573 9198.772)" fill="#5294cf"></path><path id="Path_14432" data-name="Path 14432" d="M27.824,45.329h-.557l-8.992-4.5-.182-.313L18,4.893l.276-.4L27.268,0h.567V45.329" transform="translate(2904.434 9198.772)" fill="#1f5b98"></path><path id="Path_14433" data-name="Path 14433" d="M55.68,0h12.8V45.329H55.68Z" transform="translate(2876.037 9198.772)" fill="#2d72b8"></path><path id="Path_14434" data-name="Path 14434" d="M40.229,35.411l-.3-.067-4.341-.4-.064.032-9.007-.36h-12.8l-9.007.352V28.1h0v-.02L13.717,26h12.8l9.007,2.087,3.311,1.759V28.718l1.4-.153-.145-.283-4.434-3.168-.135.044-9-2.791h-12.8L4.71,25.158v-6.9L0,23.776v4.819l.037-.027,1.362.148v1.155L0,30.619v4.8H.037l1.362.025v2.013L.224,37.47,0,37.441v4.8l1.4.751v1.168l-1.34.153L0,44.262v4.819L4.71,54.6V47.7l9.007,2.791h12.8l9.034-2.8.121.052,4.373-3.121.192-.31-1.4-.155V43.013l-.182-.074-3,1.616-.108.227-9.034,2.074h-12.8L4.71,44.772v-6.9l9.007.36h12.8l9.007-.367.2.094,4.208-.362.3-.145-1.4-.02V35.441l1.4-.02" transform="translate(2918 9185.011)" fill="#1a476f"></path><path id="Path_14435" data-name="Path 14435" d="M144.18,127.347v6.9l4.71-5.518V123.94l-4.681,3.4h-.027" transform="translate(2809.339 9105.365)" fill="#2d72b8"></path><path id="Path_14436" data-name="Path 14436" d="M144.172,103.474h.027l4.681-2.518V96.13l-4.71.434v6.9" transform="translate(2809.346 9126.324)" fill="#2d72b8"></path><path id="Path_14437" data-name="Path 14437" d="M144.207,58.18h-.027v6.878l4.71.441V60.683l-4.681-2.5" transform="translate(2809.339 9154.925)" fill="#2d72b8"></path><path id="Path_14438" data-name="Path 14438" d="M144.2,25.177l4.681,3.38V23.768l-4.71-5.518v6.9h.027v.017" transform="translate(2809.346 9185.019)" fill="#2d72b8"></path><g id="Group_2497" data-name="Group 2497" transform="translate(-57.394 44)"><path id="Path_14425" data-name="Path 14425" d="M436.01,51.759a.709.709,0,0,1-.68.325c-.517-.012-1.035,0-1.554,0s-.6-.123-.6-.6V45.034a3.753,3.753,0,0,0-.187-1.15.966.966,0,0,0-.877-.739,1.1,1.1,0,0,0-1.106.6,3.639,3.639,0,0,0-.448,1.791c-.012,1.971,0,3.942,0,5.912,0,.468-.113.581-.581.581H428.2c-.34,0-.493-.15-.493-.493V41.169c0-.352.15-.493.507-.493h1.66c.372,0,.507.143.51.517s0,.739,0,1.141a1.579,1.579,0,0,0,.288-.473,2.449,2.449,0,0,1,1.564-1.308,2.737,2.737,0,0,1,3.619,2.264,6.03,6.03,0,0,1,.1,1.086.273.273,0,0,0,.052.2Z" transform="translate(2595.656 9168.295)" fill="#201c1d"></path><path id="Path_14426" data-name="Path 14426" d="M245.333,42.047a2.873,2.873,0,0,1,2.71-1.619,2.749,2.749,0,0,1,2.537,1.85c.123-.2.219-.379.328-.547a2.956,2.956,0,0,1,4.508-.471,2.515,2.515,0,0,1,.739,1.66c.128,1.441.037,2.887.052,4.331s0,2.838,0,4.257c0,.384-.111.493-.493.493h-1.875c-.308,0-.471-.145-.473-.446,0-1.956-.012-3.91,0-5.866a14.4,14.4,0,0,0-.059-1.668,1.019,1.019,0,0,0-1.36-.877,1.323,1.323,0,0,0-1,1.126,6.1,6.1,0,0,0-.113,1.244v5.89c0,.493-.111.594-.6.594h-1.687c-.431,0-.557-.123-.557-.552V45.316a4.745,4.745,0,0,0-.079-1.3,1.114,1.114,0,0,0-.985-.882,1.185,1.185,0,0,0-1.232.774A3.555,3.555,0,0,0,245.5,45c-.111,2.2-.017,4.4-.049,6.607,0,.308-.1.414-.419.416h-1.875c-.389,0-.493-.1-.493-.493V41.168c0-.424.081-.493.493-.493h1.724c.35,0,.468.118.471.461S245.333,41.747,245.333,42.047Z" transform="translate(2735.119 9168.304)" fill="#201c1d"></path><path id="Path_14427" data-name="Path 14427" d="M313.286,45.75c0,.714.015,1.3,0,1.892a2.681,2.681,0,0,0,.69,1.85.468.468,0,0,1-.069.751c-.4.347-.8.7-1.19,1.069-.451.431-.606.436-1.057,0a3.924,3.924,0,0,1-.675-.788c-.106-.182-.192-.2-.333-.037a3.91,3.91,0,0,1-2.658,1.237,4.208,4.208,0,0,1-1.685-.192,2.668,2.668,0,0,1-1.739-2.121,4.028,4.028,0,0,1,.192-2.451,3.449,3.449,0,0,1,2.217-1.971,15.5,15.5,0,0,1,2.653-.54,2.831,2.831,0,0,0,.611-.049c.1-.034.15-.069.155-.177a3.787,3.787,0,0,0-.138-1.269,1.349,1.349,0,0,0-1.493-.8,1.567,1.567,0,0,0-1.325,1.256c-.084.325-.232.4-.564.355-.517-.074-1.037-.135-1.559-.177-.4-.032-.576-.222-.493-.606a3.478,3.478,0,0,1,2.19-2.629,5.609,5.609,0,0,1,4.065-.138,2.9,2.9,0,0,1,2.151,2.988C313.283,44.094,313.271,44.984,313.286,45.75Zm-2.895,1.123v-.589c0-.143-.071-.207-.2-.177-.313.076-.636.03-.951.1a2.277,2.277,0,0,0-1.35.677,1.931,1.931,0,0,0-.288,2,1.138,1.138,0,0,0,.345.493,1.323,1.323,0,0,0,1.853-.34A3.449,3.449,0,0,0,310.391,46.873Z" transform="translate(2688.542 9168.703)" fill="#201c1d"></path><path id="Path_14428" data-name="Path 14428" d="M206.176,45.351v2.217A2.826,2.826,0,0,0,206.9,49.5a.478.478,0,0,1-.02.709q-.739.675-1.49,1.33a.431.431,0,0,1-.6-.02,4.623,4.623,0,0,1-.914-1.032c-.076-.1-.111-.177-.246-.037a3.806,3.806,0,0,1-2.422,1.271,3.358,3.358,0,0,1-2.956-.8,3.1,3.1,0,0,1-.82-1.835,3.927,3.927,0,0,1,.108-1.685,3.387,3.387,0,0,1,2.387-2.4,15.752,15.752,0,0,1,2.629-.535,3.136,3.136,0,0,0,.611-.047c.113-.037.163-.081.163-.2A4.434,4.434,0,0,0,203.2,43a1.328,1.328,0,0,0-1.493-.833,1.512,1.512,0,0,0-1.335,1.3.411.411,0,0,1-.493.335c-.544-.074-1.089-.145-1.633-.2-.409-.042-.544-.219-.448-.621a3.686,3.686,0,0,1,3.168-2.909,5.629,5.629,0,0,1,2.747.054,2.937,2.937,0,0,1,2.451,2.939C206.191,43.833,206.176,44.592,206.176,45.351Zm-5.728,2.811a1.542,1.542,0,0,0,.172.882,1.094,1.094,0,0,0,1.069.608,1.614,1.614,0,0,0,1.283-.924,4.755,4.755,0,0,0,.362-2.464c0-.126-.091-.15-.185-.133a10.285,10.285,0,0,0-1.232.172A1.721,1.721,0,0,0,200.448,48.162Z" transform="translate(2769.241 9168.684)" fill="#201c1d"></path><path id="Path_14429" data-name="Path 14429" d="M384.629,46.426a7.233,7.233,0,0,1,.857-3.826,3.906,3.906,0,0,1,2.941-2.1,4.287,4.287,0,0,1,2.973.547,4.577,4.577,0,0,1,1.791,2.188,8.076,8.076,0,0,1,.586,3.678,6.489,6.489,0,0,1-1.15,3.513,4.1,4.1,0,0,1-3.387,1.806,3.971,3.971,0,0,1-3.126-1.291,5.538,5.538,0,0,1-1.32-2.779,6.849,6.849,0,0,1-.165-1.737Zm4.755,3.614a1.072,1.072,0,0,0,.771-.493,3.617,3.617,0,0,0,.569-2.1,16.269,16.269,0,0,0,.017-2,8.491,8.491,0,0,0-.33-1.907,1.29,1.29,0,0,0-1.35-.877,1.132,1.132,0,0,0-1.015.707,4.239,4.239,0,0,0-.409,1.934,14.107,14.107,0,0,0,.1,2.69,3.941,3.941,0,0,0,.429,1.387A1.207,1.207,0,0,0,389.383,50.04Z" transform="translate(2628.128 9168.3)" fill="#201c1d"></path><path id="Path_14430" data-name="Path 14430" d="M352.414,43.525h-3.22c-.337,0-.461-.069-.493-.392a7.147,7.147,0,0,1,0-1.623c.037-.261.2-.34.426-.34h6.348c.468,0,.581.113.581.579,0,.246-.017.493,0,.722a1.919,1.919,0,0,1-.421,1.311c-.707,1-1.389,2.018-2.079,3.028l-1.215,1.781c-.039.057-.118.108-.086.185s.14.054.214.052a6.92,6.92,0,0,1,3.358.8.717.717,0,0,1,.438.7v1.525c0,.384-.246.544-.6.377a7.809,7.809,0,0,0-2.37-.749,7.223,7.223,0,0,0-3.786.475c-.246.1-.493.227-.759.323A.333.333,0,0,1,348.3,52a12.852,12.852,0,0,1,.044-2.133,2.441,2.441,0,0,1,.478-.944q1.724-2.56,3.449-5.114A.685.685,0,0,0,352.414,43.525Z" transform="translate(2655.521 9167.745)" fill="#201c1d"></path><path id="Path_14439" data-name="Path 14439" d="M200.74,113.427V104.26h2.646q5.07,0,5.07,4.469a4.4,4.4,0,0,1-1.407,3.41,5.4,5.4,0,0,1-3.781,1.288Zm1.515-7.883v6.592h1.215a3.4,3.4,0,0,0,2.5-.882,3.35,3.35,0,0,0,.892-2.493q0-3.215-3.331-3.215Z" transform="translate(2766.712 9120.197)" fill="#201c1d"></path><path id="Path_14440" data-name="Path 14440" d="M241.027,114.9l-2.956,7.6a2.86,2.86,0,0,1-2.582,2.037,3.1,3.1,0,0,1-.781-.084v-1.232a2.074,2.074,0,0,0,.641.116,1.321,1.321,0,0,0,1.232-.818l.441-1.074L234.43,114.9h1.643l1.559,4.757q.025.089.116.473h.025q.032-.148.116-.461l1.636-4.769Z" transform="translate(2741.322 9112.178)" fill="#201c1d"></path><path id="Path_14441" data-name="Path 14441" d="M270.644,120.989h-1.478v-3.7q0-1.835-1.3-1.835a1.417,1.417,0,0,0-1.118.507,1.884,1.884,0,0,0-.441,1.281v3.735H264.83v-6.538h1.478v1.086h.025a2.333,2.333,0,0,1,2.124-1.232,1.971,1.971,0,0,1,1.631.695,3.123,3.123,0,0,1,.562,2.005Z" transform="translate(2718.411 9112.635)" fill="#201c1d"></path><path id="Path_14442" data-name="Path 14442" d="M298.606,120.945h-1.439v-1.022h-.025a2.165,2.165,0,0,1-1.988,1.175,2.094,2.094,0,0,1-1.513-.525,1.833,1.833,0,0,1-.547-1.387q0-1.855,2.136-2.161l1.944-.276q0-1.4-1.33-1.4a3.158,3.158,0,0,0-2.109.8v-1.3a4.6,4.6,0,0,1,2.392-.613,2.175,2.175,0,0,1,2.481,2.441Zm-1.431-3.215-1.375.192a2.177,2.177,0,0,0-.963.31.906.906,0,0,0-.323.8.872.872,0,0,0,.3.68,1.151,1.151,0,0,0,.8.266,1.478,1.478,0,0,0,1.121-.475,1.69,1.69,0,0,0,.443-1.2Z" transform="translate(2697.111 9112.679)" fill="#201c1d"></path><path id="Path_14443" data-name="Path 14443" d="M331.785,120.968h-1.478V117.4a2.825,2.825,0,0,0-.291-1.478,1.069,1.069,0,0,0-.985-.461,1.183,1.183,0,0,0-.985.581,2.373,2.373,0,0,0-.406,1.394v3.543h-1.478v-3.7q0-1.828-1.291-1.828a1.165,1.165,0,0,0-.985.549,2.425,2.425,0,0,0-.387,1.426v3.543H322.02v-6.555H323.5v1.035h.025a2.269,2.269,0,0,1,2.064-1.19,1.946,1.946,0,0,1,1.185.374,1.863,1.863,0,0,1,.695.985,2.349,2.349,0,0,1,2.173-1.355q2.161,0,2.16,2.666Z" transform="translate(2675.31 9112.656)" fill="#201c1d"></path><path id="Path_14444" data-name="Path 14444" d="M369.822,121.131a3.244,3.244,0,0,1-2.419-.916,3.313,3.313,0,0,1-.9-2.431,3.232,3.232,0,0,1,3.486-3.5,3.143,3.143,0,0,1,2.392.9,3.482,3.482,0,0,1,.857,2.5,3.434,3.434,0,0,1-.924,2.51A3.308,3.308,0,0,1,369.822,121.131Zm.071-5.666a1.693,1.693,0,0,0-1.375.608,2.542,2.542,0,0,0-.505,1.675,2.4,2.4,0,0,0,.512,1.621,1.724,1.724,0,0,0,1.367.591,1.631,1.631,0,0,0,1.345-.581,2.571,2.571,0,0,0,.471-1.655,2.624,2.624,0,0,0-.471-1.668,1.623,1.623,0,0,0-1.338-.6Z" transform="translate(2641.791 9112.646)" fill="#201c1d"></path><path id="Path_14445" data-name="Path 14445" d="M399.74,113.427V104.26h2.646q5.07,0,5.07,4.469a4.4,4.4,0,0,1-1.407,3.41,5.4,5.4,0,0,1-3.781,1.288Zm1.515-7.883v6.592h1.215a3.4,3.4,0,0,0,2.5-.882,3.35,3.35,0,0,0,.892-2.493q0-3.215-3.331-3.215Z" transform="translate(2616.736 9120.197)" fill="#201c1d"></path><path id="Path_14446" data-name="Path 14446" d="M436.72,113.427V104.26h2.909a3.437,3.437,0,0,1,2.106.581,1.808,1.808,0,0,1,.776,1.515,2.163,2.163,0,0,1-.441,1.355,2.38,2.38,0,0,1-1.232.818v.025a2.394,2.394,0,0,1,1.513.7,2.133,2.133,0,0,1,.567,1.537,2.308,2.308,0,0,1-.926,1.9,3.671,3.671,0,0,1-2.34.739Zm1.515-7.947v2.609h.985a1.892,1.892,0,0,0,1.232-.374,1.3,1.3,0,0,0,.451-1.057q0-1.175-1.572-1.175Zm0,3.828v2.9h1.3a1.971,1.971,0,0,0,1.313-.394,1.345,1.345,0,0,0,.463-1.084q0-1.426-1.971-1.426Z" transform="translate(2588.866 9120.197)" fill="#201c1d"></path></g></g></svg>