
<svg xmlns="http://www.w3.org/2000/svg" width="86.68" height="85.005" viewBox="0 0 86.68 85.005"><g id="Group_2503" data-name="Group 2503" transform="translate(-3438 -9198.772)"><g id="Group_2484" data-name="Group 2484" transform="translate(3438 9198.772)"><g id="Group_2481" data-name="Group 2481"><g id="Group_2480" data-name="Group 2480"><path id="Path_14497" data-name="Path 14497" d="M0,8.031v4.656L16.407,7.908V0Z" fill="#1f5b99"></path><path id="Path_14498" data-name="Path 14498" d="M0,111.756l16.407,8.031v-7.933L0,107.1Z" transform="translate(0 -80.716)" fill="#1f5b99"></path></g></g><path id="Path_14499" data-name="Path 14499" d="M38,56.91v9.509l7.046,1.01V55.9Z" transform="translate(-28.639 -42.129)" fill="#1f5b99"></path><g id="Group_2483" data-name="Group 2483" transform="translate(16.407)"><g id="Group_2482" data-name="Group 2482"><path id="Path_14500" data-name="Path 14500" d="M83.007,8.031v4.656L66.6,7.908V0Z" transform="translate(-66.6)" fill="#5194d0"></path><path id="Path_14501" data-name="Path 14501" d="M83.007,111.756,66.6,119.787v-7.933L83.007,107.1Z" transform="translate(-66.6 -80.716)" fill="#5194d0"></path></g></g><path id="Path_14502" data-name="Path 14502" d="M73.646,56.91v9.509L66.6,67.429V55.9Z" transform="translate(-50.193 -42.129)" fill="#5194d0"></path><path id="Path_14503" data-name="Path 14503" d="M16.407,32.1,0,36.879l12.589,1.626,3.818-.542,3.818.542,12.589-1.626Z" transform="translate(0 -24.192)" fill="#17496f"></path><path id="Path_14504" data-name="Path 14504" d="M20.225,100.4l-3.818.567-3.818-.567L0,102.026l16.407,4.779,16.407-4.779Z" transform="translate(0 -75.666)" fill="#99bce3"></path></g><g id="Group_2502" data-name="Group 2502" transform="translate(-36.471 48.348)"><g id="Group_2479" data-name="Group 2479" transform="translate(3477.712 9201.187)"><g id="Group_2478" data-name="Group 2478"><g id="Group_2477" data-name="Group 2477"><path id="Path_14494" data-name="Path 14494" d="M170.956,23.186l-1.577-4.04h-5.1l-1.577,4.04h-1.5L166.226,10.4h1.256l5,12.786Zm-2.045-5.4-1.478-3.942A16.581,16.581,0,0,1,166.841,12c-.123.567-.32,1.158-.542,1.848l-1.5,3.942Z" transform="translate(-161.2 -10.252)" fill="#222"></path><path id="Path_14495" data-name="Path 14495" d="M220.613,23.336H219.16L216.6,14.813c-.123-.37-.246-.862-.419-1.429-.148-.567-.222-.911-.246-1.035a16.841,16.841,0,0,1-.616,2.513l-2.488,8.474h-1.453L208,10.6h1.577l2.02,7.859a29.748,29.748,0,0,1,.616,3.005,21.773,21.773,0,0,1,.69-3.1l2.291-7.735h1.577l2.39,7.809a26.751,26.751,0,0,1,.714,3.055,26.157,26.157,0,0,1,.616-3.005l2-7.834h1.577Z" transform="translate(-196.471 -10.403)" fill="#222"></path><path id="Path_14496" data-name="Path 14496" d="M285.882,19.334a3.1,3.1,0,0,1-1.207,2.611,5.359,5.359,0,0,1-3.3.936,8.164,8.164,0,0,1-3.474-.591V20.861a8.576,8.576,0,0,0,1.7.517,9.374,9.374,0,0,0,1.823.2,3.671,3.671,0,0,0,2.217-.567,1.829,1.829,0,0,0,.739-1.552,2.015,2.015,0,0,0-.271-1.084,2.584,2.584,0,0,0-.887-.788,10.734,10.734,0,0,0-1.9-.813,6.21,6.21,0,0,1-2.537-1.5A3.281,3.281,0,0,1,278.023,13a2.8,2.8,0,0,1,1.109-2.34,4.516,4.516,0,0,1,2.932-.862,8.61,8.61,0,0,1,3.5.69l-.468,1.281a7.869,7.869,0,0,0-3.055-.665,3.106,3.106,0,0,0-1.848.493,1.684,1.684,0,0,0-.665,1.4,2.019,2.019,0,0,0,.246,1.084,2.446,2.446,0,0,0,.813.764,10.7,10.7,0,0,0,1.774.788,7.136,7.136,0,0,1,2.759,1.527A3.153,3.153,0,0,1,285.882,19.334Z" transform="translate(-249.151 -9.8)" fill="#222"></path></g></g></g><g id="Group_2485" data-name="Group 2485" transform="translate(3477.712 9222.521)"><path id="Path_14505" data-name="Path 14505" d="M167.876,111.473H161.2V99.5h6.676v1.232H162.6v3.843h4.952v1.232H162.6v4.41h5.272Z" transform="translate(-161.2 -98.736)"></path><path id="Path_14506" data-name="Path 14506" d="M199.655,109.136H198.3V96.4h1.355Z" transform="translate(-189.16 -96.4)"></path><path id="Path_14507" data-name="Path 14507" d="M218.808,120.29l-.271-1.281h-.074a3.634,3.634,0,0,1-1.33,1.133,4.163,4.163,0,0,1-1.675.3,2.984,2.984,0,0,1-2.094-.69,2.558,2.558,0,0,1-.764-1.946c0-1.823,1.453-2.759,4.336-2.858l1.527-.049v-.542a2.247,2.247,0,0,0-.443-1.552,1.825,1.825,0,0,0-1.453-.493,5.792,5.792,0,0,0-2.537.69l-.419-1.035a6.857,6.857,0,0,1,1.453-.567,5.765,5.765,0,0,1,1.577-.2,3.392,3.392,0,0,1,2.365.714,2.956,2.956,0,0,1,.764,2.291v6.11h-.961Zm-3.055-.961a2.772,2.772,0,0,0,2-.69,2.53,2.53,0,0,0,.714-1.946v-.813l-1.355.049a5.182,5.182,0,0,0-2.34.493,1.533,1.533,0,0,0-.714,1.38,1.361,1.361,0,0,0,.443,1.109A1.689,1.689,0,0,0,215.753,119.33Z" transform="translate(-199.938 -107.554)"></path><path id="Path_14508" data-name="Path 14508" d="M257.256,117.676a2.231,2.231,0,0,1-.936,1.922,4.446,4.446,0,0,1-2.611.69,5.8,5.8,0,0,1-2.784-.567v-1.256a6.143,6.143,0,0,0,1.38.517,5.864,5.864,0,0,0,1.429.2,3.193,3.193,0,0,0,1.626-.345,1.131,1.131,0,0,0,.567-1.035,1.119,1.119,0,0,0-.443-.887,7.124,7.124,0,0,0-1.774-.887,10.6,10.6,0,0,1-1.774-.813,2.406,2.406,0,0,1-.788-.788,2.044,2.044,0,0,1-.246-1.059,1.991,1.991,0,0,1,.887-1.724,4.155,4.155,0,0,1,2.439-.641,7.214,7.214,0,0,1,2.833.591l-.493,1.109a6.642,6.642,0,0,0-2.439-.567,2.849,2.849,0,0,0-1.453.3.934.934,0,0,0-.493.838,1.008,1.008,0,0,0,.172.616,2.079,2.079,0,0,0,.591.493,14.23,14.23,0,0,0,1.577.665,6.732,6.732,0,0,1,2.168,1.158A1.986,1.986,0,0,1,257.256,117.676Z" transform="translate(-228.802 -107.403)"></path><path id="Path_14509" data-name="Path 14509" d="M285.065,113.3a6.053,6.053,0,0,0,.69-.049c.222-.025.394-.074.542-.1v1.035a2.6,2.6,0,0,1-.641.172,4.66,4.66,0,0,1-.764.074c-1.724,0-2.611-.912-2.611-2.734v-5.346H281v-.665l1.281-.567.567-1.922h.788v2.069h2.611v1.059h-2.611V111.6a1.685,1.685,0,0,0,.394,1.232A1.163,1.163,0,0,0,285.065,113.3Z" transform="translate(-251.487 -101.525)"></path><path id="Path_14510" data-name="Path 14510" d="M309.3,99.011a.928.928,0,0,1,.222-.69.78.78,0,0,1,.567-.222.822.822,0,0,1,.567.222,1.089,1.089,0,0,1,0,1.38.835.835,0,0,1-1.133,0A.967.967,0,0,1,309.3,99.011Zm1.453,11.406H309.4V101.45h1.355Z" transform="translate(-272.815 -97.681)"></path><path id="Path_14511" data-name="Path 14511" d="M329.065,120.212A3.76,3.76,0,0,1,326.059,119a4.891,4.891,0,0,1-1.059-3.4,5.1,5.1,0,0,1,1.084-3.474,3.9,3.9,0,0,1,3.079-1.232,5.681,5.681,0,0,1,1.281.148,4.9,4.9,0,0,1,1.01.32l-.419,1.158a5.162,5.162,0,0,0-.985-.3,4.663,4.663,0,0,0-.936-.123q-2.734,0-2.734,3.474a4.152,4.152,0,0,0,.665,2.537,2.318,2.318,0,0,0,1.971.887,6.1,6.1,0,0,0,2.291-.493v1.207A4.38,4.38,0,0,1,329.065,120.212Z" transform="translate(-284.648 -107.328)"></path><path id="Path_14512" data-name="Path 14512" d="M362.708,120.29l-.271-1.281h-.074a3.634,3.634,0,0,1-1.33,1.133,4.163,4.163,0,0,1-1.675.3,2.984,2.984,0,0,1-2.094-.69,2.558,2.558,0,0,1-.764-1.946c0-1.823,1.453-2.759,4.336-2.858l1.527-.049v-.542a2.246,2.246,0,0,0-.443-1.552,1.825,1.825,0,0,0-1.453-.493,5.792,5.792,0,0,0-2.537.69l-.419-1.035a6.858,6.858,0,0,1,1.453-.567,5.765,5.765,0,0,1,1.577-.2,3.392,3.392,0,0,1,2.365.714,2.956,2.956,0,0,1,.764,2.291v6.11h-.961Zm-3.079-.961a2.772,2.772,0,0,0,2-.69,2.53,2.53,0,0,0,.714-1.946v-.813l-1.355.049a5.182,5.182,0,0,0-2.34.493,1.533,1.533,0,0,0-.714,1.38,1.361,1.361,0,0,0,.443,1.109A1.765,1.765,0,0,0,359.629,119.33Z" transform="translate(-308.388 -107.554)"></path><path id="Path_14513" data-name="Path 14513" d="M399.265,120.212A3.76,3.76,0,0,1,396.259,119a4.891,4.891,0,0,1-1.059-3.4,5.1,5.1,0,0,1,1.084-3.474,3.9,3.9,0,0,1,3.079-1.232,5.681,5.681,0,0,1,1.281.148,4.9,4.9,0,0,1,1.01.32l-.419,1.158a5.162,5.162,0,0,0-.985-.3,4.663,4.663,0,0,0-.936-.123q-2.734,0-2.734,3.474a4.152,4.152,0,0,0,.665,2.537,2.318,2.318,0,0,0,1.971.887,6.1,6.1,0,0,0,2.291-.493v1.207A4.38,4.38,0,0,1,399.265,120.212Z" transform="translate(-337.554 -107.328)"></path><path id="Path_14514" data-name="Path 14514" d="M435.71,109.136v-5.789a2.332,2.332,0,0,0-.493-1.626,2.019,2.019,0,0,0-1.552-.542,2.575,2.575,0,0,0-2.069.764,3.844,3.844,0,0,0-.641,2.513v4.681H429.6V96.4h1.355v3.843a7.609,7.609,0,0,1-.074,1.158h.074a2.831,2.831,0,0,1,1.133-1.01,3.752,3.752,0,0,1,1.7-.37,3.479,3.479,0,0,1,2.464.788,3.323,3.323,0,0,1,.813,2.488v5.839Z" transform="translate(-363.48 -96.4)"></path><path id="Path_14515" data-name="Path 14515" d="M473.486,120.287a4.065,4.065,0,0,1-3.129-1.207,4.69,4.69,0,0,1-1.158-3.35,5.2,5.2,0,0,1,1.059-3.449A3.524,3.524,0,0,1,473.117,111a3.335,3.335,0,0,1,2.661,1.109,4.224,4.224,0,0,1,.985,2.932v.862H470.58a3.559,3.559,0,0,0,.788,2.39,2.75,2.75,0,0,0,2.143.813,6.947,6.947,0,0,0,2.858-.616V119.7a8.652,8.652,0,0,1-1.355.443A6.525,6.525,0,0,1,473.486,120.287Zm-.37-8.154a2.228,2.228,0,0,0-1.724.714,3.261,3.261,0,0,0-.764,1.946h4.681a3.078,3.078,0,0,0-.567-1.971A1.939,1.939,0,0,0,473.117,112.133Z" transform="translate(-393.324 -107.403)"></path></g></g></g></svg>