
<svg xmlns="http://www.w3.org/2000/svg" id="elasticsearch" width="106.095" height="65.036" viewBox="0 0 106.095 65.036"><g id="Group_2538" data-name="Group 2538" transform="translate(0 51.774)"><path id="Path_14897" data-name="Path 14897" d="M4.626,270.612a4.549,4.549,0,0,1-3.4-1.252A4.711,4.711,0,0,1,0,265.88a5.383,5.383,0,0,1,1.146-3.586A3.872,3.872,0,0,1,4.265,261a3.87,3.87,0,0,1,2.907,1.1,4.218,4.218,0,0,1,1.082,3.077v1.082H2.037a3.393,3.393,0,0,0,.721,2.079,2.4,2.4,0,0,0,1.931.721,7.242,7.242,0,0,0,1.549-.149,13.06,13.06,0,0,0,1.549-.509v1.613a7.5,7.5,0,0,1-1.464.509A7.281,7.281,0,0,1,4.626,270.612Zm-.4-8.106a1.934,1.934,0,0,0-1.507.615,2.916,2.916,0,0,0-.679,1.761H6.26a2.608,2.608,0,0,0-.53-1.761A1.976,1.976,0,0,0,4.223,262.507Z" transform="translate(0 -257.393)"></path><path id="Path_14898" data-name="Path 14898" d="M51.273,257.071H49.3V244h1.973Z" transform="translate(-38.839 -244)"></path><path id="Path_14899" data-name="Path 14899" d="M75.272,270.7l-.4-1.294H74.8a3.172,3.172,0,0,1-1.358,1.146,5.026,5.026,0,0,1-1.761.318,3.059,3.059,0,0,1-2.143-.743,2.7,2.7,0,0,1-.743-2.079,2.36,2.36,0,0,1,1.082-2.143,6.353,6.353,0,0,1,3.268-.785l1.613-.042v-.509a1.869,1.869,0,0,0-.424-1.337,1.7,1.7,0,0,0-1.294-.424,4.136,4.136,0,0,0-1.358.212,11.028,11.028,0,0,0-1.252.509l-.637-1.4a7.635,7.635,0,0,1,1.655-.615,6.972,6.972,0,0,1,1.676-.212,4.005,4.005,0,0,1,2.695.785,3.026,3.026,0,0,1,.891,2.44V270.7Zm-2.928-1.358a2.4,2.4,0,0,0,1.719-.615,2.223,2.223,0,0,0,.637-1.676v-.785l-1.188.042a3.993,3.993,0,0,0-2.037.467,1.473,1.473,0,0,0-.637,1.294,1.236,1.236,0,0,0,.361.976A1.852,1.852,0,0,0,72.344,269.342Z" transform="translate(-54.201 -257.629)"></path><path id="Path_14900" data-name="Path 14900" d="M122.854,267.575a2.375,2.375,0,0,1-1,2.079,4.907,4.907,0,0,1-2.822.721,6.223,6.223,0,0,1-2.971-.573v-1.719a7.227,7.227,0,0,0,3.056.743c1.209,0,1.825-.361,1.825-1.1a.737.737,0,0,0-.212-.573,3.478,3.478,0,0,0-.679-.509,11.82,11.82,0,0,0-1.294-.573,6.14,6.14,0,0,1-2.186-1.252A2.248,2.248,0,0,1,116,263.2a2.163,2.163,0,0,1,.976-1.867,4.333,4.333,0,0,1,2.61-.637,6.938,6.938,0,0,1,3.077.679l-.637,1.464a6.572,6.572,0,0,0-2.546-.615c-1.04,0-1.57.3-1.57.891a.949.949,0,0,0,.4.743,8.5,8.5,0,0,0,1.782.828,8.135,8.135,0,0,1,1.676.828,2.338,2.338,0,0,1,.785.87A2.113,2.113,0,0,1,122.854,267.575Z" transform="translate(-91.386 -257.156)"></path><path id="Path_14901" data-name="Path 14901" d="M157.762,262.109a4.852,4.852,0,0,0,1.443-.212v1.464a4.366,4.366,0,0,1-.87.255,6.232,6.232,0,0,1-1.082.106c-1.867,0-2.8-1-2.8-2.949v-5.008H153.2v-.87l1.358-.721.679-1.973h1.209v2.079H159.1v1.507h-2.652v4.986a1.294,1.294,0,0,0,.361,1.04A1.39,1.39,0,0,0,157.762,262.109Z" transform="translate(-120.692 -250.46)"></path><path id="Path_14902" data-name="Path 14902" d="M189.7,246.025a1.16,1.16,0,0,1,.3-.828,1.017,1.017,0,0,1,.828-.3,1.16,1.16,0,0,1,.828.3,1.017,1.017,0,0,1,.3.828,1.056,1.056,0,0,1-.3.785,1.179,1.179,0,0,1-.828.3,1.125,1.125,0,0,1-.828-.3A1.023,1.023,0,0,1,189.7,246.025Zm2.122,11.755h-1.973v-9.294h1.973Z" transform="translate(-149.447 -244.709)"></path><path id="Path_14903" data-name="Path 14903" d="M214.686,270.533a4.02,4.02,0,0,1-3.183-1.209,5.247,5.247,0,0,1-1.1-3.544,5.386,5.386,0,0,1,1.146-3.628,4.1,4.1,0,0,1,3.289-1.252,6.3,6.3,0,0,1,2.652.53l-.615,1.57a6.115,6.115,0,0,0-2.079-.509c-1.613,0-2.4,1.082-2.4,3.183a3.853,3.853,0,0,0,.615,2.355,2.078,2.078,0,0,0,1.761.785,5.168,5.168,0,0,0,2.5-.637V269.9a3.114,3.114,0,0,1-1.146.424A5.747,5.747,0,0,1,214.686,270.533Z" transform="translate(-165.755 -257.314)"></path><path id="Path_14904" data-name="Path 14904" d="M256.954,267.575a2.375,2.375,0,0,1-1,2.079,4.907,4.907,0,0,1-2.822.721,6.223,6.223,0,0,1-2.971-.573v-1.719a7.227,7.227,0,0,0,3.056.743c1.21,0,1.825-.361,1.825-1.1a.737.737,0,0,0-.212-.573,3.478,3.478,0,0,0-.679-.509,11.817,11.817,0,0,0-1.294-.573,6.14,6.14,0,0,1-2.186-1.252,2.248,2.248,0,0,1-.573-1.613,2.163,2.163,0,0,1,.976-1.867,4.333,4.333,0,0,1,2.61-.637,6.938,6.938,0,0,1,3.077.679l-.637,1.464a6.572,6.572,0,0,0-2.546-.615c-1.04,0-1.57.3-1.57.891a.949.949,0,0,0,.4.743,8.505,8.505,0,0,0,1.782.828,8.134,8.134,0,0,1,1.676.828,2.535,2.535,0,0,1,.785.87A2.113,2.113,0,0,1,256.954,267.575Z" transform="translate(-197.031 -257.156)"></path><path id="Path_14905" data-name="Path 14905" d="M294.6,270.612a4.549,4.549,0,0,1-3.4-1.252,4.734,4.734,0,0,1-1.21-3.48,5.383,5.383,0,0,1,1.146-3.586,4.394,4.394,0,0,1,6.026-.191,4.218,4.218,0,0,1,1.082,3.077v1.082h-6.2a3.393,3.393,0,0,0,.721,2.079,2.4,2.4,0,0,0,1.931.721,7.242,7.242,0,0,0,1.549-.149,13.059,13.059,0,0,0,1.549-.509v1.613a7.5,7.5,0,0,1-1.464.509A7.785,7.785,0,0,1,294.6,270.612Zm-.361-8.106a1.934,1.934,0,0,0-1.507.615,2.916,2.916,0,0,0-.679,1.761h4.223a2.608,2.608,0,0,0-.53-1.761A2.079,2.079,0,0,0,294.244,262.507Z" transform="translate(-228.465 -257.393)"></path><path id="Path_14906" data-name="Path 14906" d="M342.572,270.7l-.4-1.294h-.064a3.172,3.172,0,0,1-1.358,1.146,5.026,5.026,0,0,1-1.761.318,3.059,3.059,0,0,1-2.143-.743,2.7,2.7,0,0,1-.743-2.079,2.36,2.36,0,0,1,1.082-2.143,6.354,6.354,0,0,1,3.268-.785l1.613-.042v-.509a1.869,1.869,0,0,0-.424-1.337,1.7,1.7,0,0,0-1.294-.424,4.136,4.136,0,0,0-1.358.212,11.03,11.03,0,0,0-1.252.509l-.637-1.4a7.634,7.634,0,0,1,1.655-.615,6.971,6.971,0,0,1,1.676-.212,4.005,4.005,0,0,1,2.695.785,3.026,3.026,0,0,1,.891,2.44V270.7Zm-2.949-1.358a2.4,2.4,0,0,0,1.719-.615,2.222,2.222,0,0,0,.637-1.676v-.785l-1.188.042a3.993,3.993,0,0,0-2.037.467,1.473,1.473,0,0,0-.637,1.294,1.236,1.236,0,0,0,.361.976A1.712,1.712,0,0,0,339.622,269.342Z" transform="translate(-264.783 -257.629)"></path><path id="Path_14907" data-name="Path 14907" d="M390.911,261.1c.4,0,.721.042.976.064l-.17,1.825a4.065,4.065,0,0,0-.87-.106,2.512,2.512,0,0,0-1.931.785,2.756,2.756,0,0,0-.743,2.016v4.88H386.2V261.27h1.549l.255,1.655h.106a4.312,4.312,0,0,1,1.21-1.337A2.867,2.867,0,0,1,390.911,261.1Z" transform="translate(-304.252 -257.472)"></path><path id="Path_14908" data-name="Path 14908" d="M422.986,270.533a4.02,4.02,0,0,1-3.183-1.209,5.247,5.247,0,0,1-1.1-3.544,5.386,5.386,0,0,1,1.146-3.628,4.1,4.1,0,0,1,3.289-1.252,6.3,6.3,0,0,1,2.652.53l-.615,1.57a6.115,6.115,0,0,0-2.079-.509c-1.613,0-2.4,1.082-2.4,3.183a3.852,3.852,0,0,0,.615,2.355,2.078,2.078,0,0,0,1.761.785,5.168,5.168,0,0,0,2.5-.637V269.9a3.114,3.114,0,0,1-1.146.424A5.747,5.747,0,0,1,422.986,270.533Z" transform="translate(-329.856 -257.314)"></path><path id="Path_14909" data-name="Path 14909" d="M469.627,257.071h-1.973v-5.729a2.614,2.614,0,0,0-.424-1.613,1.643,1.643,0,0,0-1.358-.53,2.189,2.189,0,0,0-1.825.743,4.152,4.152,0,0,0-.573,2.483v4.668H461.5V244h1.973v3.331a16.945,16.945,0,0,1-.106,1.719h.148a3.238,3.238,0,0,1,1.1-1.04,3.488,3.488,0,0,1,1.676-.361c2.249,0,3.374,1.146,3.374,3.4v6.026Z" transform="translate(-363.574 -244)"></path></g><g id="Elasticsearch_1_" transform="translate(32.211)"><g id="Group_2539" data-name="Group 2539" transform="translate(0 15.957)"><path id="Path_14910" data-name="Path 14910" d="M255.2,75.2H243.3c.064.276.17.573.233.806a20.155,20.155,0,0,1,.743,4.265,24.394,24.394,0,0,1,0,3.522,19.921,19.921,0,0,1-.743,4.265c-.064.276-.17.573-.233.806h11.9a6.833,6.833,0,0,0,0-13.665Z" transform="translate(-223.885 -75.2)" fill="#00a9e5"></path><path id="Path_14911" data-name="Path 14911" d="M172.191,83.794a24.4,24.4,0,0,0,0-3.522,19.919,19.919,0,0,0-.743-4.265c-.064-.276-.17-.573-.233-.806h-18.4a23.427,23.427,0,0,0,0,13.665h18.4c.064-.276.17-.573.233-.806A22.957,22.957,0,0,0,172.191,83.794Z" transform="translate(-151.8 -75.2)" fill="#353535"></path></g><g id="Group_2540" data-name="Group 2540" transform="translate(1.867 31.913)"><path id="Path_14912" data-name="Path 14912" d="M222.992,150.4H208.182a22.319,22.319,0,0,1-1.549,2.907,23.2,23.2,0,0,1-3.013,3.883c-.4.4-.806.743-1.188,1.146a24.47,24.47,0,0,1-2.631,1.995,22.491,22.491,0,0,0,12.54,3.756,22.847,22.847,0,0,0,18.97-10.143A11.572,11.572,0,0,0,222.992,150.4Z" transform="translate(-191.482 -150.4)" fill="#00bfb3"></path><path id="Path_14913" data-name="Path 14913" d="M175.75,153.307A25.221,25.221,0,0,0,177.3,150.4H160.6a22.418,22.418,0,0,0,8.382,9.909,33,33,0,0,0,2.631-1.995,15.008,15.008,0,0,0,1.188-1.146A22.615,22.615,0,0,0,175.75,153.307Z" transform="translate(-160.6 -150.4)" fill="#019b8f"></path></g><g id="Group_2541" data-name="Group 2541" transform="translate(1.804)"><path id="Path_14914" data-name="Path 14914" d="M172.5,20.84c-.4-.4-.806-.743-1.188-1.146a24.476,24.476,0,0,0-2.631-1.995,23.391,23.391,0,0,0-8.382,9.909H177A22.319,22.319,0,0,0,175.45,24.7,18.084,18.084,0,0,0,172.5,20.84Z" transform="translate(-160.3 -13.944)" fill="#f9b110"></path><path id="Path_14915" data-name="Path 14915" d="M212.34,0A22.491,22.491,0,0,0,199.8,3.756a33,33,0,0,1,2.631,1.995A15.005,15.005,0,0,1,203.619,6.9a21.6,21.6,0,0,1,3.013,3.883,25.226,25.226,0,0,1,1.549,2.907h14.811a11.6,11.6,0,0,0,8.318-3.522A22.842,22.842,0,0,0,212.34,0Z" transform="translate(-191.418)" fill="#fed10a"></path></g></g></svg>