
<svg xmlns="http://www.w3.org/2000/svg" width="81.935" height="59.391" viewBox="0 0 81.935 59.391"><g id="Layer_2" data-name="Layer 2" transform="translate(0 -0.002)"><g id="Art" transform="translate(0 0.002)"><path id="Path_14135" data-name="Path 14135" d="M78.545,10.668h1.468l4.182-4.182L84.4,4.71A18.8,18.8,0,0,0,53.81,13.883a2.266,2.266,0,0,1,1.468-.089l8.367-1.38s.422-.7.646-.662a10.435,10.435,0,0,1,14.283-1.084Z" transform="translate(-31.105 -0.002)" fill="#ea4335"></path><path id="Path_14136" data-name="Path 14136" d="M113.621,20.356a18.832,18.832,0,0,0-5.679-9.156l-5.869,5.869a10.439,10.439,0,0,1,3.831,8.279V26.39a5.228,5.228,0,0,1,0,10.452H95.452L94.41,37.9v6.266l1.042,1.042H105.9a13.6,13.6,0,0,0,7.718-24.853Z" transform="translate(-54.573 -6.475)" fill="#4285f4"></path><path id="Path_14137" data-name="Path 14137" d="M60.844,79.54H71.3V71.173H60.844a5.2,5.2,0,0,1-2.139-.473l-1.468.456-4.22,4.182-.367,1.468a13.5,13.5,0,0,0,8.194,2.734Z" transform="translate(-30.434 -40.869)" fill="#34a853"></path><path id="Path_14138" data-name="Path 14138" d="M53.565,27.33a13.591,13.591,0,0,0-8.2,24.364l6.063-6.059a5.224,5.224,0,1,1,6.912-6.912L64.4,32.676A13.562,13.562,0,0,0,53.565,27.33Z" transform="translate(-23.155 -15.799)" fill="#fbbc05"></path><path id="Path_14139" data-name="Path 14139" d="M5.709,117.566a5.544,5.544,0,0,1-4.021-1.633,5.519,5.519,0,0,1,0-7.945A5.544,5.544,0,0,1,5.709,106.3a5.384,5.384,0,0,1,3.852,1.561l-1.084,1.1a3.907,3.907,0,0,0-2.772-1.1,3.865,3.865,0,0,0-2.861,1.219,4.073,4.073,0,0,0,5.7,5.819,3.236,3.236,0,0,0,.844-1.895H5.726v-1.557h5.169a5.063,5.063,0,0,1,.059.949A4.878,4.878,0,0,1,9.62,116a5.19,5.19,0,0,1-3.911,1.57Zm12.013-1.017a3.655,3.655,0,1,1,0-5.177A3.73,3.73,0,0,1,17.722,116.549ZM13.7,115.532a1.975,1.975,0,0,0,2.789.093l.093-.093a2.342,2.342,0,0,0,0-3.148,2,2,0,0,0-2.836-.059l-.059.059a2.333,2.333,0,0,0,0,3.148h0Zm11.95,1.017a3.655,3.655,0,1,1,0-5.177,3.73,3.73,0,0,1,0,5.177Zm-4.021-1.017a1.975,1.975,0,0,0,2.789.093l.093-.093a2.342,2.342,0,0,0,0-3.148,2,2,0,0,0-2.831-.059l-.059.059a2.333,2.333,0,0,0,0,3.148h0Zm9.232,5.3a3.194,3.194,0,0,1-2.03-.646,3.738,3.738,0,0,1-1.181-1.5l1.388-.578a2.334,2.334,0,0,0,.688.907,1.734,1.734,0,0,0,1.139.384,1.831,1.831,0,0,0,1.418-.549,2.228,2.228,0,0,0,.506-1.582v-.523h-.055a2.325,2.325,0,0,1-1.89.814,3.308,3.308,0,0,1-2.435-1.059,3.671,3.671,0,0,1,0-5.123,3.3,3.3,0,0,1,2.435-1.068,2.624,2.624,0,0,1,1.122.249,2.253,2.253,0,0,1,.793.578h.055v-.578h1.511v6.494a3.8,3.8,0,0,1-.97,2.831,3.409,3.409,0,0,1-2.481.945Zm.11-4.679a1.772,1.772,0,0,0,1.376-.608,2.253,2.253,0,0,0,.553-1.561,2.3,2.3,0,0,0-.553-1.591,1.768,1.768,0,0,0-1.376-.608,1.886,1.886,0,0,0-1.426.608,2.224,2.224,0,0,0-.608,1.578,2.181,2.181,0,0,0,.608,1.561,1.886,1.886,0,0,0,1.443.624ZM37,106.717v10.646H35.423V106.717Zm4.355,10.848a3.456,3.456,0,0,1-2.532-1.021,3.528,3.528,0,0,1-1.03-2.582,3.578,3.578,0,0,1,.992-2.608,3.27,3.27,0,0,1,2.435-1.017,3.076,3.076,0,0,1,1.219.236,2.869,2.869,0,0,1,.933.608,4.22,4.22,0,0,1,.608.738,4.457,4.457,0,0,1,.359.713l.165.422-4.882,1.979a1.827,1.827,0,0,0,1.755,1.1,2.08,2.08,0,0,0,1.785-1l1.219.823a4,4,0,0,1-1.169,1.11A3.317,3.317,0,0,1,41.351,117.566Zm-2.034-3.734,3.241-1.346a1.114,1.114,0,0,0-.506-.553,1.65,1.65,0,0,0-.844-.215,1.882,1.882,0,0,0-1.308.578,1.928,1.928,0,0,0-.561,1.557Z" transform="translate(0 -61.447)" fill="#5f6368"></path><path id="Path_14140" data-name="Path 14140" d="M118.174,118.927a5.017,5.017,0,0,1-5.106-4.933v-.2a5.021,5.021,0,0,1,4.9-5.135h.2a4.549,4.549,0,0,1,3.612,1.608l-.878.844a3.312,3.312,0,0,0-2.73-1.266,3.726,3.726,0,0,0-2.709,1.084,4.22,4.22,0,0,0,0,5.679,3.722,3.722,0,0,0,2.709,1.084,3.874,3.874,0,0,0,3.046-1.426l.878.878a4.793,4.793,0,0,1-1.688,1.266A5.135,5.135,0,0,1,118.174,118.927Z" transform="translate(-65.358 -62.809)" fill="#5f6368"></path><path id="Path_14141" data-name="Path 14141" d="M138.336,119.05H137.07v-9.84h1.266Z" transform="translate(-79.233 -63.129)" fill="#5f6368"></path><path id="Path_14142" data-name="Path 14142" d="M143.663,117.087a3.528,3.528,0,0,1,4.971,0,3.844,3.844,0,0,1,0,5.118,3.528,3.528,0,0,1-4.971,0A3.844,3.844,0,0,1,143.663,117.087Zm.937,4.325a2.11,2.11,0,0,0,3,.084l.084-.084a2.717,2.717,0,0,0,0-3.532,2.11,2.11,0,0,0-3-.084l-.084.084a2.7,2.7,0,0,0,0,3.528Z" transform="translate(-82.48 -67.091)" fill="#5f6368"></path><path id="Path_14143" data-name="Path 14143" d="M167.4,123.316h-1.219v-.933h-.038a2.35,2.35,0,0,1-.89.844,2.481,2.481,0,0,1-1.266.333,2.371,2.371,0,0,1-1.911-.768,3.051,3.051,0,0,1-.654-2.059V116.59h1.266V120.5q0,1.882,1.663,1.882a1.549,1.549,0,0,0,1.266-.608,2.3,2.3,0,0,0,.494-1.456v-3.73h1.266v6.726Z" transform="translate(-93.308 -67.395)" fill="#5f6368"></path><path id="Path_14144" data-name="Path 14144" d="M181.368,119.219a2.954,2.954,0,0,1-2.253-1.03,3.92,3.92,0,0,1,0-5.106,2.954,2.954,0,0,1,2.253-1.03,2.861,2.861,0,0,1,1.376.329,2.325,2.325,0,0,1,.916.823h.055l-.055-.933V109.16h1.266V119h-1.219v-.933h-.055a2.325,2.325,0,0,1-.916.823A2.857,2.857,0,0,1,181.368,119.219Zm.207-1.152a2.008,2.008,0,0,0,1.515-.658,2.886,2.886,0,0,0,0-3.544,2.059,2.059,0,0,0-2.907-.135c-.046.042-.093.089-.135.135a2.865,2.865,0,0,0,0,3.532,2,2,0,0,0,1.527.692Z" transform="translate(-102.991 -63.101)" fill="#5f6368"></path></g></g></svg>