
<svg xmlns="http://www.w3.org/2000/svg" width="101.193" height="46.59" viewBox="0 0 101.193 46.59"><g id="kafka-streams" transform="translate(0.002 0.041)"><path id="Path_14250" data-name="Path 14250" d="M15.3,21.539a8.434,8.434,0,0,1,.4,2.5,7.9,7.9,0,0,1-.391,2.53l2.628,1.522a6.305,6.305,0,0,1,5.121-1.859,6.143,6.143,0,0,1,3.711,1.687,6.282,6.282,0,1,1-10.323,2.847l-2.554-1.495A8.525,8.525,0,0,1,9.58,31.842v2.942a6.322,6.322,0,0,1-2,12.395,6.224,6.224,0,0,1-5.87-4.969,5.941,5.941,0,0,1,.85-4.635,6.575,6.575,0,0,1,3.876-2.807c0-.961,0-1.92,0-2.9A7.939,7.939,0,0,1,6.4,16.28V13.388l-.378-.138A6.23,6.23,0,0,1,1.621,7.825,5.99,5.99,0,0,1,4.027,2.262,5.921,5.921,0,0,1,8.247.96a6.312,6.312,0,0,1,2.817,11.73,13.982,13.982,0,0,1-1.5.675V16.2c.756.337,1.535.631,2.274,1.012a7.442,7.442,0,0,1,2,1.629l2.523-1.484a6.264,6.264,0,1,1,1.515,2.7Zm-12.04,2.51a4.549,4.549,0,1,0,4.605-4.535A4.562,4.562,0,0,0,3.261,24.049ZM10.72,7.255a2.93,2.93,0,1,0-2.93,2.93A2.93,2.93,0,0,0,10.72,7.255ZM7.795,43.822A2.924,2.924,0,1,0,4.86,40.907,2.932,2.932,0,0,0,7.795,43.822ZM25.361,15.659a2.918,2.918,0,1,0-.846,2.072,2.915,2.915,0,0,0,.846-2.072ZM22.467,29.568a2.911,2.911,0,1,0,2.062.862,2.908,2.908,0,0,0-2.062-.862Z" transform="translate(0 -0.98)"></path><path id="Path_14251" data-name="Path 14251" d="M101.783,58.278c-.115-.55-.1-22.074,0-22.438h2.989V49.365c.294-.267.526-.462.742-.675,1.036-1.012,2.071-2.058,3.094-3.1a1.073,1.073,0,0,1,.86-.358c1.012.024,2.024,0,3.036,0a3.811,3.811,0,0,1,.557.034c-1.889,1.882-3.758,3.623-5.61,5.465,1.96,2.49,3.971,4.925,5.961,7.452a1.8,1.8,0,0,1-.337.084H109.86a.8.8,0,0,1-.675-.415l-3.711-4.723c-.064-.084-.138-.159-.206-.24a.81.81,0,0,0-.472.837c.02,1.319,0,2.638,0,3.957v.547C103.764,58.312,102.782,58.265,101.783,58.278Z" transform="translate(-67.394 -24.106)"></path><path id="Path_14252" data-name="Path 14252" d="M212.477,49.345c.476-.466.874-.85,1.268-1.245.857-.854,1.717-1.707,2.564-2.571a.877.877,0,0,1,.692-.294h3.6a10.588,10.588,0,0,1-1.781,1.876c-.634.57-1.225,1.188-1.839,1.781s-1.248,1.2-1.9,1.818l5.992,7.486a1.825,1.825,0,0,1-.337.078h-3.259a.624.624,0,0,1-.55-.273q-1.842-2.362-3.711-4.723c-.1-.132-.213-.256-.32-.385a.725.725,0,0,0-.432.732V58.16a11.213,11.213,0,0,1-3.063.024V35.84h3.036c.061,1.127.02,2.237.027,3.35s0,2.237,0,3.353V45.9C212.477,47.027,212.477,48.13,212.477,49.345Z" transform="translate(-138.758 -24.106)"></path><path id="Path_14253" data-name="Path 14253" d="M256.2,76.031h-3.013c-.206-.354,0-.749-.152-1.144-.1.071-.2.125-.29.2a5.674,5.674,0,0,1-7.243.094,6.531,6.531,0,0,1-2.416-4.409,7.813,7.813,0,0,1,.391-4.028A5.934,5.934,0,0,1,248,62.8a5.344,5.344,0,0,1,4.743,1.322l.337.3.03-1.349c1.046-.057,2.024-.02,3.067-.027a3.929,3.929,0,0,1,.061.469v12.1C256.238,75.727,256.218,75.849,256.2,76.031Zm-2.925-6.38a4.3,4.3,0,0,0-.867-2.895,3.5,3.5,0,0,0-4.571-.739,3.627,3.627,0,0,0-1.349,1.687,5.151,5.151,0,0,0-.074,3.549,3.6,3.6,0,0,0,1.349,1.842,3.545,3.545,0,0,0,4.77-.86A4.211,4.211,0,0,0,253.28,69.651Z" transform="translate(-161.012 -41.893)"></path><path id="Path_14254" data-name="Path 14254" d="M148.635,63.01V75.928a11.4,11.4,0,0,1-3.06.024V74.771c-.26.2-.452.337-.648.5a5.337,5.337,0,0,1-3.188,1.14,5.735,5.735,0,0,1-4.845-2.318,7.122,7.122,0,0,1-1.424-3.87,7.732,7.732,0,0,1,.489-3.6,5.922,5.922,0,0,1,4-3.735,5.32,5.32,0,0,1,5.06,1.076l.53.435V63.024C146.6,62.993,147.6,63.01,148.635,63.01ZM145.8,69.555a12.867,12.867,0,0,0-.27-1.5,3.482,3.482,0,0,0-6.724-.044,5.155,5.155,0,0,0-.121,2.571,3.466,3.466,0,0,0,3.667,3.036,3.293,3.293,0,0,0,2.783-1.667A5.02,5.02,0,0,0,145.8,69.555Z" transform="translate(-89.743 -41.874)"></path><path id="Path_14255" data-name="Path 14255" d="M188.4,35.122v3.114c-.2-.088-.337-.145-.5-.219a4.048,4.048,0,0,0-1.228-.408,1.1,1.1,0,0,0-1.38.965,6.748,6.748,0,0,0-.108,1.059v4.386a2.173,2.173,0,0,0,.03.415h3.094a9.7,9.7,0,0,1,.027,2.9H185.2v10.02a11.287,11.287,0,0,1-3.08.064c-.047-1.1,0-2.21-.02-3.316s0-2.233,0-3.353V47.375l-.985-.047a10.01,10.01,0,0,1,0-2.871h.958c0-.2.02-.364.02-.53,0-1.687,0-3.374.017-5.06a7.956,7.956,0,0,1,.229-1.555A3.036,3.036,0,0,1,183.9,35.26,4.764,4.764,0,0,1,188.4,35.122Z" transform="translate(-119.948 -23.3)"></path><path id="Path_14256" data-name="Path 14256" d="M288.715,88.809a2.281,2.281,0,1,1-2.287,2.3,2.24,2.24,0,0,1,2.287-2.3Zm.017.476a1.751,1.751,0,0,0-1.832,1.795,1.8,1.8,0,0,0,1.778,1.842,1.822,1.822,0,0,0,1.859-1.795,1.764,1.764,0,0,0-1.8-1.842Z" transform="translate(-189.799 -59.205)"></path><path id="Path_14257" data-name="Path 14257" d="M160.455,40.265h-.567V38.578h-1.468l-.037,1.687h-.614V36.533h.6c0,.246.024.476.027.7s0,.428,0,.695c.5.034.955,0,1.471,0V36.52h.577A18.265,18.265,0,0,1,160.455,40.265Z" transform="translate(-104.546 -24.557)"></path><path id="Path_14258" data-name="Path 14258" d="M170.358,40.179H168.3a22.531,22.531,0,0,1-.037-3.728,9.193,9.193,0,0,1,2.068-.024v.587h-1.41v.746l1.349.051v.611h-1.282a2.051,2.051,0,0,0-.02,1.137h1.366Z" transform="translate(-111.459 -24.464)"></path><path id="Path_14259" data-name="Path 14259" d="M119.666,36l1.761,3.93h-.695l-.4-.847h-1.484c-.074.138-.155.283-.229.435-.24.5-.243.5-.867.381.587-1.316,1.2-2.6,1.8-3.893Zm-.078,1.417a3.35,3.35,0,0,0-.422,1.012h.881c-.118-.28-.216-.52-.32-.759a2.788,2.788,0,0,0-.138-.267Z" transform="translate(-78.027 -24.212)"></path><path id="Path_14260" data-name="Path 14260" d="M136.435,39.678h-.675c.26-.725.6-1.349.9-2.024s.6-1.285.945-2.024c.648,1.349,1.218,2.652,1.815,4.018l-.654.067-.432-.9h-1.478Zm1.643-1.511-.462-1.063-.486,1.049Z" transform="translate(-89.961 -23.967)"></path><path id="Path_14261" data-name="Path 14261" d="M129.849,36.455a3,3,0,0,1,1.464.047,1.12,1.12,0,0,1-.037,2.119,7.472,7.472,0,0,1-.746.138l-.034,1.414h-.577a4.1,4.1,0,0,1-.067-1.231V37.73Zm.675.617v.965c.3.037.577.067.776-.189a.455.455,0,0,0,.04-.523c-.162-.307-.439-.314-.8-.253Z" transform="translate(-86.034 -24.469)"></path><path id="Path_14262" data-name="Path 14262" d="M149.638,39.141v.675a1.909,1.909,0,0,1-2.449-.27,1.947,1.947,0,0,1-.1-2.55,1.9,1.9,0,0,1,2.557-.462v.631c-.2.03-.31-.125-.455-.189a1.285,1.285,0,0,0-1.764.7,1.322,1.322,0,0,0,.746,1.761,1.225,1.225,0,0,0,1.032-.061A3.639,3.639,0,0,0,149.638,39.141Z" transform="translate(-97.183 -24.364)"></path><path id="Path_14263" data-name="Path 14263" d="M291.491,93.533v.8H291.1V91.853a5.976,5.976,0,0,1,.813,0,.675.675,0,0,1,.6.506.715.715,0,0,1-.337.837c-.051.034-.1.064-.172.1l.746.992c-.28.121-.462.115-.621-.1s-.361-.459-.54-.675Zm.044-.675c.2.024.395.074.509-.115a.394.394,0,0,0,0-.337c-.115-.209-.314-.189-.523-.135Z" transform="translate(-192.895 -61.213)"></path><path id="Path_14264" data-name="Path 14264" d="M106.646,113.758l-1.2,1.063a1.716,1.716,0,0,0-1.3-.884.786.786,0,0,0-.523.172.5.5,0,0,0-.2.388.675.675,0,0,0,.145.408,11.024,11.024,0,0,0,1.194,1.1q.931.779,1.13.982a3.41,3.41,0,0,1,.7.958,2.388,2.388,0,0,1,.206,1.012,2.287,2.287,0,0,1-.729,1.727,2.652,2.652,0,0,1-1.9.675,2.824,2.824,0,0,1-1.592-.449,3.536,3.536,0,0,1-1.161-1.407l1.37-.827q.617,1.134,1.42,1.134a1.046,1.046,0,0,0,.705-.243A.725.725,0,0,0,105.2,119a.975.975,0,0,0-.216-.58,6.231,6.231,0,0,0-.948-.891,9.584,9.584,0,0,1-1.8-1.758,2.233,2.233,0,0,1-.408-1.235,2.024,2.024,0,0,1,.675-1.525,2.362,2.362,0,0,1,1.687-.638,2.641,2.641,0,0,1,1.221.3,4.45,4.45,0,0,1,1.238,1.083Z" transform="translate(-67.206 -74.822)"></path><path id="Path_14265" data-name="Path 14265" d="M118.743,113h4.723v1.606h-1.559v6.95h-1.65v-6.95H118.74Z" transform="translate(-78.683 -75.235)"></path><path id="Path_14266" data-name="Path 14266" d="M135.69,112.983h1.724a5.7,5.7,0,0,1,2.024.253,2.068,2.068,0,0,1,.968.84,2.577,2.577,0,0,1,.364,1.39,2.362,2.362,0,0,1-.4,1.41,2.453,2.453,0,0,1-1.218.857l2.024,3.8h-1.781l-1.909-3.613h-.148v3.623H135.7Zm1.629,3.343h.5a1.994,1.994,0,0,0,1.069-.206.766.766,0,0,0,.294-.675.827.827,0,0,0-.145-.486.8.8,0,0,0-.388-.3,2.945,2.945,0,0,0-.894-.091h-.445Z" transform="translate(-89.915 -75.218)"></path><path id="Path_14267" data-name="Path 14267" d="M155.15,113h4.672v1.592h-3.036v1.545h3.036v1.586h-3.036v2.25h3.036v1.6H155.15Z" transform="translate(-102.81 -75.235)"></path><path id="Path_14268" data-name="Path 14268" d="M174.053,113h1.65l3.289,8.552H177.3l-.675-1.761h-3.488l-.695,1.761H170.76Zm.837,2.267-1.147,2.935h2.287Z" transform="translate(-113.153 -75.235)"></path><path id="Path_14269" data-name="Path 14269" d="M197.734,113h1.586l1.984,5.965,2-5.965h1.586l1.434,8.552h-1.575l-.918-5.4-1.818,5.4h-1.434l-1.8-5.4-.938,5.4H196.25Z" transform="translate(-130.044 -75.235)"></path><path id="Path_14270" data-name="Path 14270" d="M232.3,113.778l-1.2,1.066a1.724,1.724,0,0,0-1.3-.887.786.786,0,0,0-.523.172.5.5,0,0,0-.2.388.675.675,0,0,0,.145.408,11.061,11.061,0,0,0,1.194,1.1q.931.779,1.13.982a3.4,3.4,0,0,1,.7.958,2.386,2.386,0,0,1,.206,1.012,2.284,2.284,0,0,1-.729,1.737,2.652,2.652,0,0,1-1.9.675,2.824,2.824,0,0,1-1.592-.449,3.536,3.536,0,0,1-1.161-1.407l1.37-.827q.617,1.134,1.42,1.134a1.046,1.046,0,0,0,.705-.243.725.725,0,0,0,.287-.563.975.975,0,0,0-.216-.58,6.218,6.218,0,0,0-.948-.891,9.574,9.574,0,0,1-1.8-1.758,2.233,2.233,0,0,1-.408-1.235,2.024,2.024,0,0,1,.675-1.525,2.361,2.361,0,0,1,1.687-.638,2.642,2.642,0,0,1,1.221.3,4.453,4.453,0,0,1,1.238,1.073Z" transform="translate(-150.467 -74.842)"></path></g></svg>