
<svg xmlns="http://www.w3.org/2000/svg" xmlns:xlink="http://www.w3.org/1999/xlink" width="149.941" height="43" viewBox="0 0 149.941 43"><defs><linearGradient id="linear-gradient" x1="-6.161" y1="-5.923" x2="-8.532" y2="-5.926" gradientUnits="objectBoundingBox"><stop offset="0.231" stop-color="#9b9a75"></stop><stop offset="0.563" stop-color="#9c9b77"></stop><stop offset="0.683" stop-color="#a2a17e"></stop><stop offset="0.768" stop-color="#abaa89"></stop><stop offset="0.837" stop-color="#b8b79a"></stop><stop offset="0.896" stop-color="#cac8b0"></stop><stop offset="0.948" stop-color="#dfddcb"></stop><stop offset="0.994" stop-color="#f8f6eb"></stop><stop offset="1" stop-color="#fbf9ef"></stop></linearGradient><linearGradient id="linear-gradient-2" x1="-3.642" y1="-5.198" x2="-5.639" y2="-6.108" gradientUnits="objectBoundingBox"><stop offset="0" stop-color="#599e4c"></stop><stop offset="1" stop-color="#498e41"></stop></linearGradient><linearGradient id="linear-gradient-3" x1="-2.434" y1="-5.773" x2="-3.816" y2="-5.527" gradientUnits="objectBoundingBox"><stop offset="0" stop-color="#4fa346"></stop><stop offset="0.24" stop-color="#59a84f"></stop><stop offset="0.651" stop-color="#75b667"></stop><stop offset="1" stop-color="#91c47f"></stop></linearGradient></defs><g id="mongodb" transform="translate(0.001 -0.001)"><path id="Path_14394" data-name="Path 14394" d="M30.392,57.082l-1.116-.37s.142-5.651-1.9-6.046c-1.344-1.557.207-66.514,5.089-.222a4.032,4.032,0,0,0-1.987,2.263A20.942,20.942,0,0,0,30.392,57.082Z" transform="translate(-20.109 -15.456)" fill="url(#linear-gradient)"></path><path id="Path_14395" data-name="Path 14395" d="M37.981,36.5s9.7-6.39,7.429-19.66C43.222,7.2,38.054,4.033,37.5,2.823A14.541,14.541,0,0,1,36.271.449l.413,26.863S35.83,35.514,37.981,36.5Z" transform="translate(-27.097 -0.335)" fill="url(#linear-gradient-2)"></path><path id="Path_14396" data-name="Path 14396" d="M8.6,36.526S-.5,30.318.021,19.364s6.952-16.34,8.2-17.317A2.563,2.563,0,0,0,9.13,0c.567,1.218.473,18.2.533,20.186C9.9,27.913,9.234,35.067,8.6,36.526Z" transform="translate(0)" fill="url(#linear-gradient-3)"></path><path id="Path_14397" data-name="Path 14397" d="M443.071,65c.521,0,2.5.091,3.424.091,1.718,0,2.914-.091,6.135-.091a9.94,9.94,0,0,1,6.6,2.121,8.81,8.81,0,0,1,3.007,6.939,9.016,9.016,0,0,1-3.743,7.787,12.419,12.419,0,0,1-7.762,2.181c-1.841,0-5-.061-7.64-.091h-.036c-.122-.243.226-1.188.442-1.212a3.959,3.959,0,0,0,1.238-.245c.557-.229.689-.513.75-1.513.092-1.878.061-4.12.061-6.666,0-1.818.03-5.363-.031-6.484-.092-.939-.49-1.181-1.288-1.364a17.076,17.076,0,0,0-1.718-.273C442.445,66,442.917,65.178,443.071,65Zm6.124,16.847a5.47,5.47,0,0,0,3.068.727,5.981,5.981,0,0,0,4.326-1.545c1.442-1.3,2.424-3.3,2.424-6.484a7.713,7.713,0,0,0-3.559-7,9.522,9.522,0,0,0-5.093-1.181,4.232,4.232,0,0,0-1.5.182.8.8,0,0,0-.276.424c-.061.545-.061,4.7-.061,7.15,0,2.515,0,6.03.061,6.454A1.861,1.861,0,0,0,449.194,81.843Z" transform="translate(-330.574 -48.555)" fill="#c1bfbe"></path><path id="Path_14398" data-name="Path 14398" d="M529.192,65c.276,0,1.093.091,3.179.091,1.964,0,3.559-.06,5.461-.06,2.362,0,5.615.848,5.615,4.363a4.246,4.246,0,0,1-2.822,3.788c-.092.03-.092.091,0,.121,2.27.575,4.264,1.969,4.264,4.636,0,2.606-1.626,4.242-3.988,5.272a12.723,12.723,0,0,1-5.032.848c-1.38,0-5.08-.152-7.136-.121-.215-.091.2-1.061.38-1.212A5.754,5.754,0,0,0,530.5,82.5c.736-.182.823-.419.915-1.51.062-.939.062-4.3.062-6.7,0-3.272.03-5.484,0-6.575-.031-.849-.338-1.121-.921-1.273-.46-.091-1.227-.182-1.84-.273C528.566,66.026,529.038,65.117,529.192,65ZM541.7,78.6c0-2.666-1.963-4.181-5.554-4.181a13.9,13.9,0,0,0-1.564.03c-.092.03-.184.091-.184.151,0,1.909-.031,4.969.061,6.181a2.038,2.038,0,0,0,.89,1.454,6.174,6.174,0,0,0,2.362.333A3.685,3.685,0,0,0,541.7,78.6Zm-6.965-12.12c-.122.03-.276.333-.276.485-.03,1.09-.061,3.939-.061,5.908a.2.2,0,0,0,.154.152c.4.031,1.38.061,2.208.061a5.264,5.264,0,0,0,2.209-.334,2.86,2.86,0,0,0,1.442-2.7c0-2.636-1.841-3.636-4.571-3.636A8.183,8.183,0,0,0,534.733,66.481Z" transform="translate(-394.948 -48.555)" fill="#c1bfbe"></path><path id="Path_14399" data-name="Path 14399" d="M95.956,102.87a1.313,1.313,0,0,1-.094-.613.777.777,0,0,1,.094-.409,10.187,10.187,0,0,0,1.178-.24c.543-.135.747-.427.779-1.121.089-1.634.094-4.7.062-6.853v-.063a.856.856,0,0,0-.284-.77,6.147,6.147,0,0,0-1.627-.714c-.257-.076-.4-.211-.391-.369s.169-.345.5-.41a19.42,19.42,0,0,0,4.132-1.068.6.6,0,0,1,.123.435c-.007.1-.015.2-.024.3-.026.3-.055.65-.055.994a.226.226,0,0,0,.385.13,7.621,7.621,0,0,1,4.1-1.85,3.528,3.528,0,0,1,3.136,1.922.214.214,0,0,0,.179.1.2.2,0,0,0,.166-.089,8.229,8.229,0,0,1,4.25-1.938c2.512,0,4.012,1.878,4.012,5.023,0,.9-.009,2.049-.017,3.118-.008.938-.014,1.817-.014,2.426a.831.831,0,0,0,.5.638,6.417,6.417,0,0,0,1.568.385l.026,0a2.319,2.319,0,0,1-.158,1.025c-.166,0-.4-.013-.683-.028-.522-.027-1.236-.063-2.068-.063-1.669,0-2.541.033-3.374.087a2.518,2.518,0,0,1-.008-1.019,8.969,8.969,0,0,0,1.018-.239c.531-.175.684-.416.715-1.12.012-.5.109-4.912-.062-5.959a2.667,2.667,0,0,0-2.767-2.355,4.876,4.876,0,0,0-2.761,1.051.408.408,0,0,0-.1.26l0,.02a11.261,11.261,0,0,1,.121,2.222c0,.569,0,1.172-.007,1.771-.007,1.216-.013,2.364.007,3.231a.814.814,0,0,0,.646.846c.156.035.281.065.4.094.241.058.491.118.86.177a1.636,1.636,0,0,1-.014.762.592.592,0,0,1-.107.261c-.928-.032-1.88-.059-3.254-.059-.416,0-1.1.018-1.7.034-.486.013-.947.026-1.208.027a1.2,1.2,0,0,1-.091-.528.922.922,0,0,1,.1-.494l.369-.066c.322-.057.6-.106.868-.172.455-.139.625-.391.659-.969a45.481,45.481,0,0,0-.033-6.206,2.55,2.55,0,0,0-2.644-2.352,4.972,4.972,0,0,0-2.76,1.05.836.836,0,0,0-.255.624c0,.462,0,1.013,0,1.6-.006,1.951-.013,4.379.035,5.43a.861.861,0,0,0,.751.849c.133.037.363.076.631.12.154.026.322.053.495.084a2.167,2.167,0,0,1-.082,1.026c-.267,0-.595-.017-.971-.034-.575-.025-1.29-.057-2.1-.057-.959,0-1.627.032-2.163.057-.36.017-.672.033-.983.034Z" transform="translate(-71.472 -67.414)" fill="#494849"></path><path id="Path_14400" data-name="Path 14400" d="M200.608,103.169c-4.61,0-6.252-3.377-6.252-6.538a5.84,5.84,0,0,1,2.687-5.13,8.193,8.193,0,0,1,4.148-1.226,5.8,5.8,0,0,1,5.975,6.144,6.354,6.354,0,0,1-2.839,5.614,8.022,8.022,0,0,1-3.719,1.135Zm-.491-11.605a2.621,2.621,0,0,0-1.468.412c-1.066.647-1.608,1.939-1.608,3.838,0,3.555,1.782,6.037,4.333,6.037a2.728,2.728,0,0,0,1.876-.661c.784-.639,1.2-1.944,1.2-3.771,0-3.5-1.742-5.855-4.333-5.855Z" transform="translate(-145.196 -67.441)" fill="#494849"></path><path id="Path_14401" data-name="Path 14401" d="M389.319,103.169c-4.61,0-6.252-3.377-6.252-6.537a5.841,5.841,0,0,1,2.688-5.131,8.192,8.192,0,0,1,4.147-1.226,5.8,5.8,0,0,1,5.975,6.144,6.353,6.353,0,0,1-2.839,5.614,8.019,8.019,0,0,1-3.719,1.135Zm-.491-11.605a2.619,2.619,0,0,0-1.468.412c-1.065.647-1.607,1.939-1.607,3.838,0,3.555,1.781,6.037,4.333,6.037a2.726,2.726,0,0,0,1.876-.661c.784-.639,1.2-1.943,1.2-3.77,0-3.5-1.742-5.855-4.333-5.855Z" transform="translate(-286.174 -67.441)" fill="#494849"></path><path id="Path_14402" data-name="Path 14402" d="M329.206,110.44a5.961,5.961,0,0,1-3.866-1.132,3.616,3.616,0,0,1-1.434-2.68,2.1,2.1,0,0,1,.543-1.363,14.372,14.372,0,0,1,2.5-2,.127.127,0,0,0,.08-.121.126.126,0,0,0-.1-.126,2.625,2.625,0,0,1-1.771-1.717c0-.015-.007-.04-.013-.067a.4.4,0,0,1,.159-.5c.178-.127.464-.3.767-.475a10.131,10.131,0,0,0,1.234-.8.2.2,0,0,0-.051-.314,3.961,3.961,0,0,1-2.829-4.154,4.136,4.136,0,0,1,1.738-3.4,7.937,7.937,0,0,1,3.887-1.316h.072a8,8,0,0,1,2.968.66,4.739,4.739,0,0,0,1.754.279,2.378,2.378,0,0,0,1.9-.713,1.641,1.641,0,0,1,.1.542,2.043,2.043,0,0,1-.34,1.245,1.541,1.541,0,0,1-1.18.511,1.354,1.354,0,0,1-.138-.007,3.9,3.9,0,0,1-.712-.119l-.118.041c-.037.054-.013.115.017.191a.393.393,0,0,1,.017.047,8.433,8.433,0,0,1,.171,1.162,4.339,4.339,0,0,1-1.833,3.921,6.261,6.261,0,0,1-3.166,1.222h0c-.025,0-.138.01-.367.03-.147.013-.331.03-.358.03l-.027,0c-.208.059-.747.315-.747.792,0,.4.245.889,1.411.977.236.018.49.035.755.053a23.138,23.138,0,0,1,4.369.547,3.019,3.019,0,0,1,2.02,2.907c0,2-1.424,3.882-3.81,5.032a8.288,8.288,0,0,1-3.6.808Zm-.184-7.03a2.343,2.343,0,0,0-1.154.285c-1.125.72-1.646,1.439-1.646,2.267a2.423,2.423,0,0,0,.956,1.953,4.843,4.843,0,0,0,3.255.994c2.755,0,3.99-1.48,3.99-2.947a2.088,2.088,0,0,0-1.568-2.092,12.3,12.3,0,0,0-3.834-.461Zm.184-11.968c-1.421,0-2.339,1.121-2.339,2.855,0,1.751.79,3.795,3.015,3.795a2.163,2.163,0,0,0,1.418-.548,3.535,3.535,0,0,0,.854-2.49c0-2.262-1.1-3.613-2.948-3.613Z" transform="translate(-241.977 -67.439)" fill="#494849"></path><g id="Group_2470" data-name="Group 2470" transform="translate(64.506 22.737)"><g id="Group_2469" data-name="Group 2469"><path id="Path_14403" data-name="Path 14403" d="M270.259,101.493a5.5,5.5,0,0,1-1.749-.455.805.805,0,0,1-.215-.424c-.061-.939-.061-3.666-.061-5.454a6.538,6.538,0,0,0-.859-3.636,3.7,3.7,0,0,0-3.129-1.636,7.277,7.277,0,0,0-4.111,1.939c-.031.03-.233.222-.229-.076s.051-.9.079-1.286a.661.661,0,0,0-.2-.562,18.864,18.864,0,0,1-4.173,1.091c-.653.125-.846.753-.123.969h0l.012,0a5.932,5.932,0,0,1,1.584.693.826.826,0,0,1,.245.758c.031,2.03.031,5.151-.061,6.848-.031.667-.215.909-.706,1.03l.045-.015a9.554,9.554,0,0,1-1.135.212,1.652,1.652,0,0,0,0,1.212c.307,0,1.872-.091,3.16-.091,1.779,0,2.7.091,3.16.091a1.692,1.692,0,0,0,.123-1.212,6.538,6.538,0,0,1-1.258-.182c-.491-.121-.614-.363-.644-.909-.061-1.424-.061-4.454-.061-6.515a1.193,1.193,0,0,1,.337-1,4.042,4.042,0,0,1,2.516-.909,2.761,2.761,0,0,1,1.871.636,2.592,2.592,0,0,1,.859,1.7c.123,1.152.092,3.454.092,5.454,0,1.091-.092,1.364-.491,1.485a4.956,4.956,0,0,1-1.258.242,1.656,1.656,0,0,0,0,1.212c.8,0,1.718-.091,3.068-.091,1.688,0,2.761.091,3.191.091A1.673,1.673,0,0,0,270.259,101.493Z" transform="translate(-255.025 -89.888)" fill="#494849"></path></g></g></g></svg>