
<svg xmlns="http://www.w3.org/2000/svg" width="129.242" height="67.051" viewBox="0 0 129.242 67.051"><g id="mysql" transform="translate(0 -0.144)"><path id="Path_14301" data-name="Path 14301" d="M0,124.105H4.342v-16.9l6.671,14.685c.79,1.816,1.816,2.487,3.948,2.487s3.158-.671,3.948-2.487L25.58,107.21v16.9h4.342v-16.9a2.563,2.563,0,0,0-2.092-2.882c-3.276-1.066-5.369-.118-6.434,2.092l-6.553,14.566L8.408,106.42c-.908-2.211-3.158-3-6.434-2.092A2.576,2.576,0,0,0,0,107.21v16.9Z" transform="translate(0 -62.792)" fill="#00678f"></path><path id="Path_14302" data-name="Path 14302" d="M84.4,120.018h4.342v9.316c0,.513.118,1.7,2.487,1.7h9.316V119.9h4.342v15.2c0,3.79-4.579,4.579-6.829,4.579H84.4V136.8H97.9c2.763-.276,2.487-1.7,2.487-2.092v-1.184h-9.04c-4.184,0-6.948-1.974-6.948-4.066v-9.435Z" transform="translate(-51.083 -72.482)" fill="#00678f"></path><path id="Path_14303" data-name="Path 14303" d="M249.8,36.76a16.217,16.217,0,0,0-6.434.908c-.513.276-1.3.276-1.3.79.276.276.276.671.513,1.066a6.346,6.346,0,0,0,1.7,1.974c.671.513,1.461,1.066,2.092,1.579,1.3.79,2.763,1.3,3.948,2.092.79.513,1.461,1.066,2.211,1.579.395.276.671.671,1.066.908v-.118c-.276-.276-.276-.79-.513-1.066a5.443,5.443,0,0,0-1.066-.908,13.4,13.4,0,0,0-3.395-3.276c-1.066-.79-3.395-1.7-3.79-2.882h-.118c.79-.118,1.579-.395,2.211-.513,1.184-.276,2.092-.276,3.276-.513a8.178,8.178,0,0,0,1.579-.513v-.276c-.671-.671-1.066-1.461-1.7-1.974a51.864,51.864,0,0,0-5.369-4.066c-1.066-.671-2.369-1.066-3.395-1.7-.395-.276-1.066-.276-1.3-.671a10.767,10.767,0,0,1-1.3-2.487c-.908-1.816-1.816-3.79-2.763-5.763a36.757,36.757,0,0,0-1.7-3.79c-3.395-5.645-7.066-8.921-12.711-12.316a12.114,12.114,0,0,0-4.184-1.3c-.789,0-1.7-.118-2.487-.118-.513-.276-1.066-.908-1.579-1.184-1.461-1.184-6.277-3.79-7.619-.395-.908,2.092,1.3,4.184,2.092,5.369a18.393,18.393,0,0,1,1.7,2.487,7.967,7.967,0,0,0,.395,1.7c.513,1.461,1.066,3,1.7,4.342.395.671.79,1.461,1.184,2.092.276.395.79.513.79,1.184a8.725,8.725,0,0,0-.79,2.487c-1.184,3.671-.789,8.25.908,11.014.513.79,1.816,2.605,3.395,1.974,1.461-.671,1.184-2.487,1.579-4.066.118-.395,0-.671.276-.908v.118a25.121,25.121,0,0,1,1.3,2.763,20.206,20.206,0,0,0,4.342,4.461,11.047,11.047,0,0,0,2.369,1.974v-.118h-.118c-.276-.276-.513-.395-.789-.671a10.793,10.793,0,0,1-1.7-1.974,34.72,34.72,0,0,1-3.671-6.04c-.513-1.066-1.066-2.092-1.461-3.158-.276-.395-.276-1.066-.513-1.184a14.923,14.923,0,0,0-1.579,2.211,17.421,17.421,0,0,0-.908,4.974c-.118,0-.118,0-.118.118-1.066-.276-1.461-1.3-1.816-2.211a13.387,13.387,0,0,1-.276-8.8c.276-.671,1.184-2.882.79-3.553-.276-.671-.908-1.066-1.184-1.461a23.038,23.038,0,0,1-1.184-2.092c-.79-1.816-1.184-3.948-2.092-5.763a11.565,11.565,0,0,0-1.7-2.487A17.079,17.079,0,0,1,206.776,4c-.118-.395-.395-.908-.118-1.3a.532.532,0,0,1,.513-.395c.395-.395,1.7.118,2.092.276a15.194,15.194,0,0,1,3.276,1.7,6.886,6.886,0,0,0,1.579,1.184h.671c1.066.276,2.211.118,3.276.395A28.987,28.987,0,0,1,222.8,8.061a28.26,28.26,0,0,1,10.224,11.29c.395.79.513,1.461.908,2.211.671,1.579,1.579,3.276,2.211,4.855a16.667,16.667,0,0,0,2.369,4.461c.513.671,2.487,1.066,3.395,1.461a11.249,11.249,0,0,1,2.211.908c1.184.671,2.211,1.461,3.276,2.211a2.584,2.584,0,0,1,2.408,1.3Z" transform="translate(-124.351 0)" fill="#00678f"></path><path id="Path_14304" data-name="Path 14304" d="M231.2,20.5c-.513,0-.908.118-1.3.118v.118h.118a12.584,12.584,0,0,0,1.066,1.3c.276.513.513,1.066.79,1.579V23.5c.395-.276.513-.79.513-1.579a1.5,1.5,0,0,0-.395-.671c-.158-.355-.553-.474-.789-.75Z" transform="translate(-139.146 -12.321)" fill="#00678f"></path><path id="Path_14305" data-name="Path 14305" d="M143.858,124.474h12.316a9.387,9.387,0,0,0,3.948-.79c1.816-.908,2.763-1.974,2.763-3.553v-3.158c0-1.184-1.066-2.369-3-3.158a10.844,10.844,0,0,0-3.671-.671h-5.25c-1.7,0-2.605-.513-2.763-1.7v-2.763c.276-.908.671-1.184,2.211-1.3H163V104.5H150.924a11.717,11.717,0,0,0-3.553.395c-2.487.79-3.671,2.092-3.671,4.184v2.487c0,1.974,2.211,3.553,5.882,3.948h6.277c1.3.118,1.974.395,2.369.908a1.087,1.087,0,0,1,.395.79V119.7a1.939,1.939,0,0,1-.671,1.066,3.649,3.649,0,0,1-1.816.671h-12.2v3h-.079Z" transform="translate(-86.974 -63.161)" fill="#e38d1a"></path><path id="Path_14306" data-name="Path 14306" d="M260.039,119.7c0,2.882,2.211,4.579,6.553,4.855.395,0,.789.118,1.3.118h11.132V121.8h-11.29c-2.487,0-3.395-.671-3.395-2.092V104.9H260v14.8Z" transform="translate(-157.364 -63.403)" fill="#e38d1a"></path><path id="Path_14307" data-name="Path 14307" d="M199.3,119.861V109.637c0-2.605,1.816-4.184,5.369-4.737h10.5c3.553.513,5.369,2.092,5.369,4.737v10.224c0,2.092-.79,3.276-2.487,3.948l4.184,3.79h-4.974l-3.395-3.158-3.395.276h-4.579a8.338,8.338,0,0,1-2.487-.395c-2.684-.671-4.105-2.132-4.105-4.461Zm4.7-.276c0,.118.118.276.118.395.276,1.184,1.3,1.816,3,1.816h3.948l-3.553-3.276h4.855l3.158,2.882a1.994,1.994,0,0,0,1.066-1.461v-10.5c-.276-1.184-1.3-1.7-3-1.7h-6.434c-1.974,0-3.158.79-3.158,2.092v9.75Z" transform="translate(-120.626 -63.403)" fill="#e38d1a"></path><path id="Path_14308" data-name="Path 14308" d="M311.808,150.682h.671v-2.369h.789V147.8H310.9v.513h.908v2.369Zm4.7,0h.671V147.8h-.908l-.789,1.974-.79-1.974h-.908v2.882h.513v-2.211h0l.789,2.211h.395l.789-2.211h0v2.211Z" transform="translate(-188.171 -89.369)" fill="#e38d1a"></path></g></svg>