<svg width="39" height="38" viewBox="0 0 39 38" fill="none" xmlns="http://www.w3.org/2000/svg">
<path fillRule="evenodd" clipRule="evenodd" d="M23.1819 0.630371C22.9084 0.630371 22.6544 0.688018 22.4199 0.764875C22.9181 1.09153 23.1917 1.52387 23.3285 2.01384C23.3383 2.0811 23.3578 2.12914 23.3675 2.19638C23.3773 2.25403 23.3871 2.31168 23.3871 2.36932C23.4262 3.21477 23.1624 3.32046 22.9768 3.82004C22.6935 4.46375 22.7716 5.15548 23.1135 5.71271C23.1428 5.77996 23.1819 5.85682 23.2308 5.92408C22.8595 3.49339 24.9208 3.12831 25.3018 2.36932C25.3312 1.70641 24.7743 1.26446 24.3347 0.957024C23.9146 0.707231 23.5336 0.630371 23.1819 0.630371ZM26.2885 1.178C26.2495 1.39897 26.2788 1.34132 26.269 1.45661C26.2592 1.53347 26.2592 1.62955 26.2495 1.70641C26.23 1.78327 26.2104 1.86012 26.1811 1.93699C26.1616 2.01384 26.1323 2.0907 26.103 2.16756C26.0639 2.24443 26.0346 2.31167 25.9955 2.38853C25.9662 2.42698 25.9466 2.46539 25.9173 2.50382C25.8978 2.53265 25.8783 2.56147 25.8587 2.59029C25.8099 2.65755 25.761 2.7248 25.7122 2.78244C25.6536 2.84009 25.6047 2.90734 25.5363 2.95538C25.5363 2.965 25.5363 2.965 25.5363 2.965C25.4777 3.01303 25.4191 3.07068 25.3507 3.11871C25.1456 3.27243 24.9111 3.38772 24.6962 3.53183C24.6278 3.57987 24.5594 3.6183 24.5008 3.67595C24.4324 3.72398 24.3738 3.77202 24.3152 3.82967C24.2468 3.88731 24.198 3.94496 24.1393 4.01221C24.0905 4.06985 24.0319 4.1371 23.9928 4.20436C23.9439 4.27161 23.8951 4.33886 23.856 4.40611C23.8169 4.48297 23.7876 4.55022 23.7486 4.62708C23.7193 4.70394 23.6899 4.7712 23.6704 4.84805C23.6411 4.93452 23.6216 5.01138 23.602 5.08824C23.5922 5.12669 23.5922 5.17471 23.5825 5.21314C23.5727 5.25158 23.5727 5.29 23.563 5.32843C23.563 5.40529 23.5532 5.49175 23.5532 5.56861C23.5532 5.62626 23.5532 5.6839 23.563 5.74155C23.563 5.81841 23.5728 5.89527 23.5923 5.98173C23.6021 6.05859 23.6216 6.13545 23.6411 6.21232C23.6704 6.28917 23.69 6.36603 23.7193 6.44289C23.7388 6.49093 23.7681 6.53897 23.7877 6.57739L21.5407 5.72233C21.1597 5.61665 20.7885 5.52058 20.4075 5.43411C20.2024 5.38607 19.9972 5.33803 19.792 5.29C19.2059 5.17471 18.61 5.08824 18.014 5.0306C17.9945 5.0306 17.9847 5.02098 17.9652 5.02098C17.379 4.96333 16.8027 4.93451 16.2165 4.93451C15.7867 4.93451 15.3568 4.95371 14.9367 4.98255C14.3408 5.02099 13.7449 5.09784 13.1489 5.19391C13.0024 5.21311 12.8559 5.24195 12.7093 5.27077C12.4065 5.32841 12.1134 5.39567 11.8301 5.46292C11.6836 5.50137 11.537 5.53978 11.3905 5.57821C11.2439 5.63585 11.1072 5.70311 10.9704 5.76075C10.8629 5.80879 10.7555 5.85682 10.648 5.90486C10.6285 5.91449 10.6089 5.91448 10.5992 5.92407C10.5015 5.9721 10.4136 6.01053 10.3256 6.05857C10.2963 6.06819 10.2768 6.07777 10.2572 6.08739C10.1498 6.13543 10.0423 6.19307 9.9544 6.24111C9.88601 6.26993 9.81763 6.30836 9.75902 6.33719C9.72971 6.35639 9.69063 6.37563 9.67109 6.38522C9.58317 6.43326 9.49524 6.48129 9.41709 6.52934C9.32917 6.57737 9.25101 6.62541 9.18263 6.67344C9.11425 6.72148 9.04586 6.75991 8.98724 6.80795C8.97746 6.81757 8.96772 6.81757 8.95793 6.82715C8.89932 6.86559 8.83094 6.91361 8.77232 6.96165C8.77232 6.96165 8.76253 6.97127 8.7528 6.98085C8.70395 7.0193 8.6551 7.05771 8.60626 7.09614C8.58673 7.10576 8.56716 7.12496 8.54764 7.13459C8.4988 7.17303 8.44995 7.22105 8.4011 7.25949C8.39132 7.27869 8.3718 7.28831 8.36201 7.29793C8.3034 7.35557 8.24478 7.40361 8.18616 7.46126C8.17638 7.46126 8.17638 7.47088 8.16664 7.48046C8.10803 7.52849 8.04941 7.58614 7.99079 7.64378C7.98101 7.6534 7.98101 7.66298 7.97127 7.66298C7.92243 7.71102 7.87358 7.75906 7.82473 7.8167C7.80521 7.8359 7.77588 7.85514 7.75635 7.87434C7.7075 7.93199 7.64889 7.98963 7.59027 8.04728C7.58048 8.06648 7.56096 8.0761 7.55118 8.09532C7.47303 8.17218 7.40464 8.24904 7.32649 8.3259C7.3167 8.33552 7.30696 8.3451 7.29718 8.35472C7.14087 8.51805 6.97479 8.68137 6.79895 8.82548C6.6231 8.9792 6.43748 9.12331 6.25186 9.24821C6.05648 9.38272 5.87087 9.498 5.66571 9.61329C5.47032 9.71897 5.26517 9.81505 5.05025 9.90152C4.84509 9.98799 4.63017 10.0648 4.41525 10.1321C4.00493 10.2186 3.58486 10.3819 3.22339 10.4107C3.14524 10.4107 3.05732 10.4299 2.97916 10.4395C2.89124 10.4587 2.81309 10.478 2.73493 10.4972C2.65678 10.526 2.57862 10.5548 2.50047 10.5836C2.42232 10.6125 2.34416 10.6509 2.26601 10.6893C2.19762 10.7374 2.11947 10.7758 2.05108 10.8238C1.9827 10.8719 1.91431 10.9295 1.8557 10.9872C1.78732 11.0352 1.71893 11.1024 1.66031 11.1601C1.6017 11.2273 1.54308 11.285 1.49424 11.3522C1.44539 11.4291 1.38677 11.4964 1.3477 11.5732C1.29885 11.6405 1.25001 11.7173 1.21093 11.7942C1.17183 11.8807 1.13277 11.9575 1.10347 12.044C1.07416 12.1208 1.04485 12.2073 1.01554 12.2938C0.996018 12.3706 0.976449 12.4475 0.966697 12.5243C0.966697 12.534 0.956912 12.5435 0.956912 12.5532C0.937389 12.6396 0.937389 12.7549 0.927604 12.8126C0.91782 12.8798 0.908081 12.9375 0.908081 13.0047C0.908081 13.0432 0.908081 13.0912 0.917865 13.1296C0.92765 13.1969 0.937388 13.2545 0.956958 13.3122C0.976481 13.3698 0.996051 13.4275 1.02534 13.4851C1.02534 13.4947 1.02534 13.4947 1.02534 13.4947C1.05465 13.5524 1.09373 13.61 1.1328 13.6677C1.17189 13.7253 1.21096 13.7829 1.2598 13.8406C1.30865 13.8886 1.36727 13.9463 1.42588 13.9943C1.4845 14.052 1.54311 14.1 1.6115 14.148C1.84596 14.3498 1.90458 14.417 2.20742 14.5708C2.25627 14.5996 2.30512 14.6188 2.36373 14.6476C2.37352 14.6476 2.38326 14.6572 2.39304 14.6572C2.39304 14.6764 2.39304 14.6861 2.40283 14.7053C2.41261 14.7821 2.43213 14.859 2.45167 14.9359C2.47119 15.0223 2.50052 15.0992 2.52983 15.1664C2.55914 15.2241 2.57867 15.2817 2.60798 15.3394C2.61777 15.3586 2.62751 15.3778 2.63729 15.3874C2.67638 15.4643 2.71544 15.5315 2.75452 15.5988C2.80337 15.666 2.85221 15.7333 2.90106 15.8005C2.9499 15.8582 3.00852 15.9254 3.06713 15.9831C3.12575 16.0407 3.18437 16.0887 3.25275 16.1464C3.25275 16.1464 3.26254 16.156 3.27228 16.156C3.33089 16.2041 3.38951 16.2521 3.44813 16.2905C3.51651 16.3386 3.58489 16.377 3.66305 16.4154C3.73143 16.4539 3.80959 16.4923 3.88774 16.5211C3.94636 16.5499 4.01474 16.5691 4.08313 16.5884C4.09291 16.598 4.10265 16.598 4.12222 16.6076C4.16131 16.6172 4.21014 16.6268 4.24922 16.6364C4.21991 17.1552 4.21012 17.6452 4.28831 17.8181C4.37623 18.0102 4.80608 17.4242 5.23593 16.7517C5.17731 17.4146 5.13823 18.1928 5.23593 18.4234C5.34339 18.6636 5.92954 17.9142 6.43754 17.0879C13.3639 15.5123 19.6847 20.22 20.349 26.8683C20.222 25.8307 18.9227 25.2543 18.3267 25.3984C18.0337 26.1093 17.5354 27.022 16.7343 27.5889C16.8027 26.9548 16.7734 26.3015 16.6367 25.6674C16.4217 26.5513 16.0017 27.3775 15.4253 28.0885C14.4972 28.1557 13.5691 27.7138 13.0806 27.0509C13.0415 27.022 13.0318 26.9644 13.0025 26.926C12.9732 26.8587 12.9439 26.7915 12.9243 26.7242C12.895 26.657 12.8755 26.5897 12.8657 26.5224C12.8559 26.4552 12.8559 26.3879 12.8559 26.3111C12.8559 26.263 12.8559 26.215 12.8559 26.167C12.8657 26.0997 12.8852 26.0325 12.9048 25.9652C12.9243 25.898 12.9439 25.8307 12.9732 25.7635C13.0123 25.6962 13.0415 25.629 13.0904 25.5617C13.2565 25.1005 13.2565 24.7259 12.9536 24.5049C12.895 24.4664 12.8364 24.4376 12.768 24.4088C12.7289 24.3992 12.6801 24.38 12.641 24.3704C12.6117 24.3607 12.5922 24.3512 12.5629 24.3415C12.4945 24.3223 12.4261 24.3031 12.3577 24.2935C12.2893 24.2743 12.2209 24.2647 12.1525 24.2647C12.0842 24.255 12.006 24.2455 11.9376 24.2455C11.8888 24.2455 11.8399 24.2551 11.7911 24.2551C11.7129 24.2551 11.6445 24.2647 11.5762 24.2839C11.5078 24.2936 11.4394 24.3031 11.371 24.3224C11.3026 24.3416 11.2342 24.3608 11.1658 24.3896C11.0975 24.4184 11.0388 24.4473 10.9705 24.4761C10.9118 24.5049 10.8532 24.5433 10.7848 24.5722C8.50861 26.0325 9.86654 29.4527 11.4198 30.4423C10.8337 30.548 10.2378 30.6729 10.0717 30.7978C10.0619 30.8074 10.0522 30.817 10.0522 30.817C10.4722 31.0668 10.9119 31.2781 11.371 31.4607C11.9963 31.6624 12.6606 31.845 12.9536 31.9218V31.9315C13.7645 32.0948 14.5851 32.1524 15.4155 32.1044C19.7433 31.8066 23.2895 28.5689 23.9343 24.3032C23.9538 24.3896 23.9734 24.4665 23.9929 24.5529C24.0222 24.7259 24.0613 24.9084 24.0808 25.091C24.0808 25.091 24.0808 25.091 24.0808 25.1006C24.1003 25.1871 24.1101 25.2735 24.1199 25.3504C24.1199 25.3696 24.1199 25.3792 24.1199 25.3888C24.1297 25.4753 24.1394 25.5618 24.1394 25.6386C24.1492 25.7443 24.159 25.85 24.159 25.9557C24.159 26.0037 24.159 26.0517 24.159 26.1094C24.159 26.1574 24.1687 26.2151 24.1687 26.2631C24.1687 26.3208 24.159 26.3784 24.159 26.436C24.159 26.4841 24.159 26.5321 24.159 26.5705C24.159 26.6378 24.1492 26.6954 24.1492 26.7627C24.1492 26.8011 24.1492 26.8396 24.1394 26.8876C24.1394 26.9549 24.1296 27.0221 24.1296 27.099C24.1198 27.1278 24.1198 27.1566 24.1198 27.1854C24.11 27.2623 24.1003 27.3295 24.0905 27.4064C24.0905 27.4352 24.0905 27.464 24.0807 27.4929C24.0709 27.5889 24.0514 27.6754 24.0416 27.7715V27.7811V27.7907C24.0221 27.8772 24.0025 27.9733 23.983 28.0597C23.983 28.0694 23.983 28.0789 23.983 28.0886C23.9635 28.175 23.9439 28.2615 23.9244 28.348C23.9244 28.3576 23.9146 28.3768 23.9146 28.3864C23.8951 28.4729 23.8755 28.5593 23.8462 28.6458C23.8462 28.6554 23.8462 28.665 23.8462 28.6746C23.8169 28.7707 23.7876 28.8572 23.7681 28.9436C23.7583 28.9533 23.7583 28.9628 23.7583 28.9628C23.729 29.0589 23.6997 29.155 23.6704 29.2511C23.6313 29.3471 23.602 29.4336 23.5629 29.5297C23.5238 29.6258 23.4945 29.7218 23.4555 29.8083C23.4164 29.9044 23.3773 29.9908 23.3382 30.0869H23.3284C23.2893 30.1734 23.2503 30.2695 23.2014 30.3559C23.1916 30.3847 23.1819 30.404 23.1721 30.4232C23.1623 30.4328 23.1623 30.4424 23.1526 30.452C22.5176 31.7106 21.5797 32.8154 20.4074 33.6801C20.3293 33.7281 20.2511 33.7858 20.173 33.8434C20.1534 33.8626 20.1241 33.8722 20.1046 33.8915C20.0362 33.9395 19.9678 33.9875 19.8897 34.0356L19.919 34.0932H19.9287C20.0655 34.074 20.2023 34.0548 20.3391 34.0356H20.3488C20.6028 33.9971 20.8568 33.9491 21.1108 33.9011C21.1792 33.8914 21.2574 33.8722 21.3258 33.853C21.3746 33.8434 21.4137 33.8338 21.4625 33.8242C21.5309 33.8146 21.5993 33.7954 21.6677 33.7858C21.7263 33.7666 21.7849 33.7569 21.8435 33.7377C22.8205 33.5071 23.7681 33.1901 24.6766 32.8154C23.1233 34.9002 21.0425 36.5815 18.6099 37.6864C19.7334 37.6095 20.8568 37.427 21.9412 37.1195C25.8782 35.9763 29.19 33.3726 31.1732 29.8659C30.7726 32.0852 29.8739 34.1989 28.5452 36.0435C29.4929 35.4286 30.3623 34.7177 31.1536 33.9107C33.342 31.6625 34.778 28.8091 35.2665 25.7443C35.5987 27.2623 35.6963 28.8283 35.5498 30.3751C42.6032 20.7004 36.136 10.6702 33.4299 8.02819C33.4201 8.00899 33.4104 7.99937 33.4104 7.98015C33.4006 7.98977 33.4006 7.98977 33.4006 7.99936C33.4006 7.98973 33.4006 7.98973 33.3908 7.98015C33.3908 8.09545 33.381 8.21073 33.3713 8.32602C33.3419 8.54699 33.3126 8.75836 33.2736 8.96972C33.2247 9.18108 33.1661 9.39244 33.1075 9.60381C33.0391 9.80557 32.9609 10.0169 32.873 10.2187C32.7851 10.4108 32.6874 10.6126 32.5799 10.8047C32.4725 10.9873 32.3552 11.1794 32.2283 11.3524C32.1012 11.5349 31.9645 11.7078 31.8277 11.8712C31.6812 12.0441 31.5249 12.1978 31.3686 12.3515C31.2709 12.438 31.1829 12.5149 31.0852 12.5917C31.0071 12.659 30.9387 12.7166 30.8605 12.7839C30.6847 12.9184 30.5089 13.0433 30.3135 13.1586C30.1279 13.2739 29.9325 13.3891 29.7371 13.4852C29.5319 13.5813 29.3268 13.6678 29.1216 13.7542C28.9165 13.8311 28.7015 13.8983 28.4866 13.956C28.2717 14.0136 28.047 14.0617 27.8321 14.1001C27.6074 14.1385 27.3827 14.1577 27.1678 14.177C27.0115 14.1866 26.8552 14.1962 26.6988 14.1962C26.4742 14.1962 26.2495 14.177 26.0345 14.1577C25.8099 14.1385 25.5852 14.1097 25.3702 14.0616C25.1455 14.0232 24.9306 13.9656 24.7157 13.8983H24.7059C24.9208 13.8791 25.1358 13.8599 25.3507 13.8215C25.5754 13.783 25.7903 13.735 26.0052 13.6773C26.2201 13.6197 26.4351 13.5524 26.6402 13.4756C26.8551 13.3987 27.0603 13.3027 27.2557 13.2066C27.4608 13.1105 27.6465 13.0048 27.8418 12.8895C28.0275 12.7646 28.2131 12.6397 28.3889 12.5052C28.5648 12.3707 28.7308 12.2266 28.8872 12.0729C29.0532 11.9288 29.1998 11.7655 29.3463 11.6021C29.4928 11.4292 29.6296 11.2563 29.7566 11.0833C29.7761 11.0545 29.7957 11.0161 29.8152 10.9873C29.9129 10.8335 30.0106 10.6798 30.0985 10.5261C30.206 10.3339 30.3037 10.1418 30.3916 9.94004C30.4795 9.73829 30.5577 9.53653 30.6261 9.32516C30.6945 9.12341 30.7433 8.91204 30.7922 8.70068C30.8313 8.47971 30.8703 8.26834 30.8898 8.05698C30.9094 7.83601 30.9289 7.61504 30.9289 7.40368C30.9289 7.24996 30.9191 7.09624 30.9094 6.94252C30.8899 6.72155 30.8606 6.51018 30.8313 6.29882C30.7922 6.07785 30.7433 5.86649 30.6847 5.65512C30.6163 5.45337 30.548 5.242 30.4698 5.04025C30.3916 4.83849 30.294 4.63673 30.1963 4.44458C30.0888 4.25243 29.9813 4.06028 29.8641 3.87774C29.7371 3.6952 29.6101 3.52227 29.4733 3.34933C29.3268 3.18601 29.1803 3.02268 29.0239 2.85935C28.9458 2.7825 28.8579 2.69603 28.7699 2.61917C28.3303 2.28291 27.8712 1.96586 27.412 1.67764C27.3436 1.63919 27.285 1.61038 27.2166 1.58156C26.8943 1.37981 26.5914 1.27412 26.2886 1.17805L26.2885 1.178Z" fill="#E0234E"/>
</svg>
