
<svg xmlns="http://www.w3.org/2000/svg" width="96.21" height="77.534" viewBox="0 0 96.21 77.534"><g id="Layer_2" data-name="Layer 2" transform="translate(0 -0.013)"><g id="Layer_1" data-name="Layer 1" transform="translate(0 2.001)"><path id="Path_14311" data-name="Path 14311" d="M6.018,55.007H1.347V49.342H6.295Q9,49.342,9,52.225T6.018,55.007m3.349-5.791a3.475,3.475,0,0,0-2.682-1.045L0,48.272V61.806H1.347V56.065H6.295A4.054,4.054,0,0,0,9.241,55.02a3.777,3.777,0,0,0,1.07-2.883A4.092,4.092,0,0,0,9.367,49.216Zm8.725,9.719a2.87,2.87,0,0,1-.642,1.158,3.4,3.4,0,0,1-2.757,1.083,3.21,3.21,0,0,1-2.518-1.032A4.1,4.1,0,0,1,11.2,57.4a5.036,5.036,0,0,1,.239-1.611,3.223,3.223,0,0,1,.68-1.183,3.273,3.273,0,0,1,2.518-1.02q3.626,0,3.626,3.777a5.728,5.728,0,0,1-.2,1.6m.239-5.036a4.658,4.658,0,0,0-3.651-1.36,4.5,4.5,0,0,0-3.525,1.385,4.885,4.885,0,0,0-1.058,3.462,4.935,4.935,0,0,0,1.158,3.4,3.777,3.777,0,0,0,1.5,1.02,5.779,5.779,0,0,0,2.014.315,4.759,4.759,0,0,0,3.651-1.334,5.678,5.678,0,0,0,0-6.8Zm10.16,5.4q0,2.745-4.066,2.745a9.707,9.707,0,0,1-2.09-.189,3.235,3.235,0,0,1-1.385-.629,2.329,2.329,0,0,1-.655-.869,4.268,4.268,0,0,1-.315-1.36h1.259a1.888,1.888,0,0,0,.655,1.586,3.915,3.915,0,0,0,2.518.617q2.845,0,2.845-1.725a1.385,1.385,0,0,0-.957-1.385q-.189-.076-2.291-.378a12.325,12.325,0,0,1-2.581-.516,1.964,1.964,0,0,1-1.12-1.939,2.279,2.279,0,0,1,1.007-2.04,4.343,4.343,0,0,1,1.259-.428,8.561,8.561,0,0,1,1.725-.151q3.915,0,3.915,2.959H26.929c0-1.385-.919-2.09-2.757-2.09a4.092,4.092,0,0,0-2.09.428,1.41,1.41,0,0,0-.692,1.259,1.259,1.259,0,0,0,.932,1.183,15.951,15.951,0,0,0,2.518.428,7.478,7.478,0,0,1,2.417.529,2.027,2.027,0,0,1,1.259,1.977Zm4.948,2.518-.516.088h-.315a2.883,2.883,0,0,1-1.775-.428,1.813,1.813,0,0,1-.541-1.511V53.849H28.83v-.856h1.486V50.022h1.158v2.971h2.014v.919H31.474V59.93a1.171,1.171,0,0,0,.3.919,1.674,1.674,0,0,0,1.058.252.768.768,0,0,0,.239,0l.4-.113v.919Zm7.944-2.052a3.3,3.3,0,0,1-1.07.755,3.6,3.6,0,0,1-1.372.227,3.185,3.185,0,0,1-3.626-3.6,3.6,3.6,0,0,1,.919-2.619A3.45,3.45,0,0,1,38.8,53.61a3.273,3.273,0,0,1,2.518.969,3.638,3.638,0,0,1,.869,2.518,3.777,3.777,0,0,1-.894,2.694m2.153-6.8H42.3v1.536a8.4,8.4,0,0,0-1.083-1.183A4.432,4.432,0,0,0,38.7,52.7a4.117,4.117,0,0,0-4.545,4.532,5.842,5.842,0,0,0,.29,1.888,3.9,3.9,0,0,0,.806,1.36,4.494,4.494,0,0,0,3.349,1.2,4.016,4.016,0,0,0,3.689-1.712v1.586a3.273,3.273,0,0,1-.743,2.342,3.462,3.462,0,0,1-2.593.831,4,4,0,0,1-2.442-.579,2.518,2.518,0,0,1-.743-1.511H34.584A3.16,3.16,0,0,0,35.629,64.8a5.527,5.527,0,0,0,3.336.768q4.507,0,4.507-4.041V52.993Zm6.219.894a5.036,5.036,0,0,0-.969-.1q-2.82,0-2.82,3.777v4.243H44.744V52.993h1.146v1.586h0a2.77,2.77,0,0,1,.919-1.423,3.651,3.651,0,0,1,2.052-.491h.768v1.183Zm1.07,2.883a4.318,4.318,0,0,1,.982-2.354,3.286,3.286,0,0,1,1.158-.667,3.9,3.9,0,0,1,1.41-.239,3.311,3.311,0,0,1,2.518,1.02,3.21,3.21,0,0,1,.919,2.241H50.749m7.088-2.745a3.626,3.626,0,0,0-1.486-1.032,5.678,5.678,0,0,0-2.09-.353,4.306,4.306,0,0,0-4.7,4.658,4.847,4.847,0,0,0,1.183,3.4,4.646,4.646,0,0,0,3.626,1.4,5.6,5.6,0,0,0,1.712-.252,4.368,4.368,0,0,0,1.385-.718,3.941,3.941,0,0,0,1.259-2.216H57.472a2.984,2.984,0,0,1-3.2,2.329,3.45,3.45,0,0,1-2.77-1.12,3.651,3.651,0,0,1-.831-2.518h8.2a5.262,5.262,0,0,0-1.1-3.55Z" transform="translate(0 9.955)" fill="#231f20"></path><path id="Path_14312" data-name="Path 14312" d="M58.764,58.252q0,3.966-5.3,3.966a6.635,6.635,0,0,1-4.633-1.36,4.432,4.432,0,0,1-1.259-3.4h1.423q0,3.7,4.406,3.7a4.91,4.91,0,0,0,3.059-.755,2.593,2.593,0,0,0,.806-2.09,2.04,2.04,0,0,0-1.083-1.977,15.334,15.334,0,0,0-2.946-.781,13.421,13.421,0,0,1-3.9-1.108,3.022,3.022,0,0,1-1.259-2.77,3.273,3.273,0,0,1,1.1-2.707A6.484,6.484,0,0,1,53.149,48q5.187,0,5.187,4.167h-1.41q0-3.122-3.852-3.122a4.922,4.922,0,0,0-2.82.629,2.354,2.354,0,0,0-.844,1.939,1.964,1.964,0,0,0,1.083,1.914,17.034,17.034,0,0,0,3.4.894,10.349,10.349,0,0,1,3.575,1.12,2.959,2.959,0,0,1,1.259,2.719ZM70.309,59.6A5.3,5.3,0,0,1,68.5,60.745a6.207,6.207,0,0,1-2.241.378,5.376,5.376,0,0,1-4.1-1.649,7.075,7.075,0,0,1,0-8.813,5.476,5.476,0,0,1,4.117-1.6,5.187,5.187,0,0,1,4.079,1.674,5.111,5.111,0,0,1,1.158,1.9,7.629,7.629,0,0,1,.378,2.518,6.3,6.3,0,0,1-1.574,4.507m.755.894A5.729,5.729,0,0,0,72.7,58.265a8.423,8.423,0,0,0,.529-3.11,7.252,7.252,0,0,0-1.737-5.036,5.716,5.716,0,0,0-2.241-1.561A8.271,8.271,0,0,0,66.242,48a6.811,6.811,0,0,0-5.149,1.939,7.176,7.176,0,0,0-1.851,5.2,7.151,7.151,0,0,0,1.888,5.174,6.861,6.861,0,0,0,5.162,1.939,10.5,10.5,0,0,0,2.228-.214,4.847,4.847,0,0,0,1.611-.642l2.1,1.712.881-.969-2.027-1.662Zm12.8,1.3H74.174V48.281h1.335v12.5h8.385v1.07Z" transform="translate(12.317 9.907)" fill="#326690"></path><path id="Path_14313" data-name="Path 14313" d="M53.2,40.7c.428-2.984.3-3.424,2.921-2.933h.667A17.625,17.625,0,0,0,63,36.884c3.336-1.259,5.313-3.5,2.027-2.933C57.469,35.21,57,33.108,57,33.108c7.919-9.971,11.23-22.661,8.372-25.708C57.557-1.01,44.086,2.993,43.834,3.094h-.076a31.386,31.386,0,0,0-5.036-.441,13.962,13.962,0,0,0-7.931,2.014S6.707-3.742,7.828,15.243C8.054,19.284,14.664,45.8,22.52,37.791c2.908-2.921,5.678-5.363,5.678-5.363a8.309,8.309,0,0,0,4.759,1.032l.138-.1a3.7,3.7,0,0,0,0,1.146c-1.977,1.876-1.385,2.216-5.388,2.959s-1.687,1.989-.113,2.329c1.9.4,6.295.982,9.291-2.518l-.113.4c.793.541.743,3.878.856,6.295A19.35,19.35,0,0,0,38.5,49.89c.567,1.259,1.259,4.683,6.572,3.777,4.444-.806,7.843-1.964,8.158-12.778" transform="translate(2.017 -1.987)" fill="#231f20" stroke="#231f20" stroke-width="4.11"></path><path id="Path_14314" data-name="Path 14314" d="M65.01,33.988c-7.554,1.259-8.02-.844-8.02-.844,7.919-9.971,11.23-22.661,8.372-25.708C57.569-1.011,44.086,2.992,43.834,3.093h-.076a31.386,31.386,0,0,0-5.036-.441,13.962,13.962,0,0,0-7.931,2.014S6.707-3.743,7.828,15.242C8.054,19.283,14.651,45.8,22.52,37.79c2.908-2.921,5.678-5.363,5.678-5.363a8.309,8.309,0,0,0,4.759,1.032l.138-.1a3.777,3.777,0,0,0,0,1.146c-1.977,1.876-1.385,2.216-5.388,2.959s-1.687,1.989-.113,2.329c1.9.4,6.295.982,9.291-2.518l-.113.4c.793.541,1.347,3.5,1.259,6.194s-.151,4.532.466,5.98,1.259,4.683,6.572,3.777c4.444-.806,6.748-2.9,7.075-6.4.227-2.518.743-2.115.781-4.331l.415-1.045c.478-3.361.076-4.444,2.82-3.941h.667a17.625,17.625,0,0,0,6.207-.881c3.336-1.259,5.313-3.5,2.027-2.933Z" transform="translate(2.017 -1.986)" fill="#326690"></path><path id="Path_14315" data-name="Path 14315" d="M37.187,35.992c-.2,6.295,0,12.59.781,14.1s2.266,4.507,7.554,3.55c4.444-.806,6.068-2.367,6.761-5.829.5-2.518,1.511-9.593,1.637-11.041M30.8,4.518S6.695-3.8,7.828,15.194c.252,4.041,6.824,30.555,14.692,22.535,2.87-2.933,5.464-5.288,5.464-5.288M43.834,3.02C43,3.259,57.242-1.387,65.325,7.376c2.858,3.1-.453,15.75-8.372,25.708" transform="translate(2.017 -2.001)" fill="none" stroke="#fff" stroke-linecap="round" stroke-linejoin="round" stroke-width="1.37"></path><path id="Path_14316" data-name="Path 14316" d="M53.47,32.96s.5,2.153,8.02.844c3.286-.579,1.259,1.611-2.027,2.933-2.732,1.07-8.813,1.347-8.976-.138-.264-3.777,3.223-2.669,2.984-3.638s-1.788-1.712-2.82-3.777S38.3,13.081,53.823,15.2c.567-.1-4.054-12.514-18.582-12.716S21.19,17.588,21.19,17.588" transform="translate(5.487 -1.877)" fill="none" stroke="#fff" stroke-linecap="round" stroke-linejoin="bevel" stroke-width="1.37"></path><path id="Path_14317" data-name="Path 14317" d="M29.5,27.877c-2.027,1.914-1.435,2.254-5.476,2.959s-1.687,1.989-.113,2.329c1.9.4,6.295.982,9.291-2.518.906-1.07,0-2.795-1.259-3.236a2.065,2.065,0,0,0-2.442.5Z" transform="translate(5.64 4.528)" fill="none" stroke="#fff" stroke-linejoin="round" stroke-width="1.37"></path><path id="Path_14318" data-name="Path 14318" d="M29.564,31.618a7.944,7.944,0,0,1,1.12-4.041C31.717,25.223,34.1,22.868,32.2,15.39c-1.423-5.565-10.953-1.158-10.953-.4a32.028,32.028,0,0,1-.164,7.4C20.311,27.061,24.578,31,29.5,30.6" transform="translate(5.435 0.749)" fill="none" stroke="#fff" stroke-linecap="round" stroke-linejoin="round" stroke-width="1.37"></path><path id="Path_14319" data-name="Path 14319" d="M26,14.478a1.611,1.611,0,0,0,1.334,1.032,1.486,1.486,0,0,0,1.5-.705c0-.252-.554-.541-1.334-.629S26,14.189,26,14.478Z" transform="translate(6.733 1.145)" fill="#fff" stroke="#fff" stroke-width="0.46"></path><path id="Path_14320" data-name="Path 14320" d="M45.478,14.069A1.611,1.611,0,0,1,44.143,15.1,1.486,1.486,0,0,1,42.62,14.4c0-.264.554-.541,1.335-.629s1.448,0,1.5.3Z" transform="translate(11.037 1.038)" fill="#fff" stroke="#fff" stroke-width="0.23"></path><path id="Path_14321" data-name="Path 14321" d="M47.452,12.58c.126,2.027-.516,3.4-.592,5.552-.126,3.135,1.763,6.71-1.07,10.3" transform="translate(11.858 0.739)" fill="none" stroke="#fff" stroke-linecap="round" stroke-linejoin="round" stroke-width="1.37"></path></g></g></svg>