
<svg xmlns="http://www.w3.org/2000/svg" xmlns:xlink="http://www.w3.org/1999/xlink" width="211.329" height="51.391" viewBox="0 0 211.329 51.391"><defs><linearGradient id="linear-gradient" x1="-0.034" y1="1.286" x2="0.712" y2="0.644" gradientUnits="objectBoundingBox"><stop offset="0" stop-color="#5a9fd4"></stop><stop offset="1" stop-color="#306998"></stop></linearGradient><linearGradient id="linear-gradient-2" x1="0.651" y1="-0.09" x2="0.385" y2="0.284" gradientUnits="objectBoundingBox"><stop offset="0" stop-color="#ffd43b"></stop><stop offset="1" stop-color="#ffe873"></stop></linearGradient></defs><g id="python_1" transform="translate(-0.024)"><path id="Path_60" data-name="Path 60" d="M226.361,26.1q0-9.709-5.535-9.982a10.432,10.432,0,0,0-4.3.7A6.343,6.343,0,0,0,214.262,18V33.453a10.9,10.9,0,0,0,6.291,2.057c3.872-.212,5.807-3.357,5.807-9.407Zm4.567.272a13.817,13.817,0,0,1-2.329,8.2,8.573,8.573,0,0,1-7.2,3.781,12.7,12.7,0,0,1-7.138-2.178V50.24L210.3,48.819V17.634a8.98,8.98,0,0,1,2.511-2.057,17.278,17.278,0,0,1,8.59-2.117l.061.06A7.955,7.955,0,0,1,228.6,17.3a16.291,16.291,0,0,1,2.329,9.074ZM255.156,35.6c0,4.416-.454,7.471-1.331,9.165a9.393,9.393,0,0,1-5.082,4.083,19.351,19.351,0,0,1-6.564,1.3l-.665-2.511a35.573,35.573,0,0,0,5.051-.968,6.716,6.716,0,0,0,3.962-2.994c.575-1.089.877-3.176.877-6.231V36.418a20.7,20.7,0,0,1-8.53,1.845,7.917,7.917,0,0,1-5.172-1.845,6.3,6.3,0,0,1-2.511-5.112V14.821l3.962-1.361V30.066a5.067,5.067,0,0,0,1.724,4.114,6.483,6.483,0,0,0,4.446,1.391,11.147,11.147,0,0,0,5.838-2.117V14.1h3.962l.03,21.506Zm15.486,2.571-1.3.06a7.841,7.841,0,0,1-5.233-1.6,5.582,5.582,0,0,1-1.875-4.446V16.575h-2.722V14.1h2.722V7.441L266.2,6.019v8.046h4.446v2.48H266.2V32.062a3.675,3.675,0,0,0,1.21,3.146,6.213,6.213,0,0,0,3.267.877v2.087Zm24.016-.333H290.7V22.534a7.207,7.207,0,0,0-1.089-4.023,3.96,3.96,0,0,0-3.478-1.906c-1.815,0-4.083.968-6.806,2.873v18.33h-3.962V1.24L279.294,0V16.666a13.829,13.829,0,0,1,8.318-2.783A6.62,6.62,0,0,1,292.723,16a7.519,7.519,0,0,1,1.966,5.263l-.03,16.575ZM315.741,25.5a12.252,12.252,0,0,0-1.422-6.17,5.941,5.941,0,0,0-5.2-3.146c-4.356.242-6.5,3.357-6.5,9.316a15.426,15.426,0,0,0,1.361,6.866,5.483,5.483,0,0,0,5.233,3.448c4.325-.03,6.533-3.478,6.533-10.314Zm4.325.03a14.127,14.127,0,0,1-2.722,8.862,9.8,9.8,0,0,1-8.257,3.962,9.544,9.544,0,0,1-8.136-3.962,14.224,14.224,0,0,1-2.662-8.862,12.658,12.658,0,0,1,2.873-8.409,9.909,9.909,0,0,1,7.985-3.63,10.071,10.071,0,0,1,8.046,3.63,12.6,12.6,0,0,1,2.873,8.409Zm22.746,12.311H338.85V21.657a5.4,5.4,0,0,0-1.6-4.144,5.674,5.674,0,0,0-4.265-1.422,9.537,9.537,0,0,0-5.354,1.845V37.869h-3.993V17.422a19.645,19.645,0,0,1,6.291-3.267,18.756,18.756,0,0,1,4.779-.7,12.6,12.6,0,0,1,2.662.272,7.827,7.827,0,0,1,3.811,2,5.325,5.325,0,0,1,1.633,3.9V37.839Z" transform="translate(-146.673)" fill="#646464"></path><path id="Path_61" data-name="Path 61" d="M24.457,4.6a33.58,33.58,0,0,0-5.717.484c-5.051.877-5.959,2.752-5.959,6.2v4.537H24.729v1.512H8.3A7.422,7.422,0,0,0,.864,23.383a22.325,22.325,0,0,0,0,12.129c.847,3.539,2.873,6.049,6.352,6.049H11.33V36.117a7.59,7.59,0,0,1,7.441-7.411H30.688a5.99,5.99,0,0,0,5.959-6.049V11.285c0-3.236-2.722-5.656-5.959-6.2A39.036,39.036,0,0,0,24.457,4.6ZM18.014,8.26a2.269,2.269,0,1,1-2.238,2.269A2.259,2.259,0,0,1,18.014,8.26Z" transform="translate(0 -3.209)" fill="url(#linear-gradient)"></path><path id="Path_62" data-name="Path 62" d="M67.617,46.8v5.293a7.641,7.641,0,0,1-7.441,7.562H48.259A6.069,6.069,0,0,0,42.3,65.7V77.077c0,3.236,2.813,5.142,5.959,6.049a19.979,19.979,0,0,0,11.917,0c2.994-.877,5.959-2.631,5.959-6.049V72.54H54.217V71.028H72.093c3.478,0,4.749-2.42,5.959-6.049,1.24-3.751,1.18-7.32,0-12.129-.847-3.448-2.48-6.049-5.959-6.049ZM60.932,75.565a2.269,2.269,0,1,1-2.238,2.269A2.259,2.259,0,0,1,60.932,75.565Z" transform="translate(-29.488 -32.644)" fill="url(#linear-gradient-2)"></path><path id="Path_63" data-name="Path 63" d="M670.064,23.57h.7V19.214h1.633V18.7H668.4v.514h1.633l.03,4.356m2.964,0h.6V19.577l1.3,3.993h.665l1.331-3.962V23.57h.635V18.7h-.847l-1.482,4.174L674,18.7h-.968v4.87" transform="translate(-466.211 -13.044)" fill="#646464"></path></g></svg>