
<svg xmlns="http://www.w3.org/2000/svg" width="63.725" height="79.867" viewBox="0 0 63.725 79.867"><g id="Layer_2" data-name="Layer 2" transform="translate(0 0.001)"><g id="design" transform="translate(0 -0.001)"><circle id="Ellipse_5" data-name="Ellipse 5" cx="5.645" cy="5.645" r="5.645" transform="translate(26.217 22.682)" fill="#00d8ff"></circle><path id="Path_14120" data-name="Path 14120" d="M31.863,71.937c-7.942,0-14.9-.941-20.125-2.718C4.5,66.739,0,62.723,0,58.73,0,54.888,4.163,51.139,11.141,48.7A65.244,65.244,0,0,1,31.863,45.64a64.97,64.97,0,0,1,20.442,3c7.151,2.47,11.421,6.243,11.421,10.1,0,4.006-4.654,8.012-12.149,10.5A65.47,65.47,0,0,1,31.863,71.937Zm0-23.052a62.856,62.856,0,0,0-19.654,2.878c-6.156,2.153-8.964,5.125-8.964,6.967,0,2.063,3.278,5.272,9.541,7.415,4.888,1.669,11.484,2.544,19.076,2.544a61.919,61.919,0,0,0,18.7-2.537c6.817-2.253,9.919-5.425,9.919-7.422,0-1.85-2.888-4.834-9.231-7.011A61.426,61.426,0,0,0,31.863,48.885Z" transform="translate(0 -30.403)" fill="#00d8ff"></path><path id="Path_14121" data-name="Path 14121" d="M43.4,56.754a6.25,6.25,0,0,1-3.165-.781c-3.339-1.92-4.507-7.4-3.125-14.666a65.54,65.54,0,0,1,7.7-19.48h0A65.145,65.145,0,0,1,57.635,5.615C63.344.637,68.746-1.169,72.084.75c3.459,2,4.62,8.042,3.038,15.768A65.115,65.115,0,0,1,67.6,34.953c-3.979,6.884-8.273,12.453-12.419,16.075C50.945,54.751,46.712,56.754,43.4,56.754Zm4.223-33.315A63.059,63.059,0,0,0,40.3,41.9c-1.219,6.407-.047,10.323,1.556,11.244,1.789,1.035,6.21-.207,11.191-4.564,3.879-3.4,7.939-8.68,11.742-15.254A61.635,61.635,0,0,0,71.938,15.86c1.439-7.011.24-11.3-1.482-12.3-1.6-.921-5.629.09-10.683,4.49A62.015,62.015,0,0,0,47.63,23.436Z" transform="translate(-24.344 0.001)" fill="#00d8ff"></path><path id="Path_14122" data-name="Path 14122" d="M69.048,56.89c-3.135,0-7.081-1.87-11.167-5.388a65.346,65.346,0,0,1-13.02-16.385h0a65.085,65.085,0,0,1-7.642-19.206c-1.449-7.425-.334-13.02,3-14.943,3.469-2,9.281,0,15.174,5.241A64.931,64.931,0,0,1,67.613,21.925c4.006,6.9,6.677,13.4,7.722,18.786,1.486,7.508.26,13.414-3.2,15.4A6.116,6.116,0,0,1,69.048,56.89Zm-21.366-23.4A62.836,62.836,0,0,0,60.011,49.041c4.934,4.253,8.92,5.195,10.523,4.263,1.786-1.028,2.921-5.468,1.636-11.962-1-5.038-3.529-11.191-7.345-17.788A61.936,61.936,0,0,0,53.264,8.638c-5.131-4.557-9.615-5.889-11.4-4.861-1.6.928-2.741,4.928-1.459,11.511a62.288,62.288,0,0,0,7.268,18.2Z" transform="translate(-24.379 -0.135)" fill="#00d8ff"></path><path id="Path_14123" data-name="Path 14123" d="M34.949,210.672l-3.8-5.635a3.854,3.854,0,0,0,3.609-4.05,4.091,4.091,0,0,0-4.313-4.227H24.9v13.908h1.759v-5.545h2.728l3.525,5.549Zm-4.674-6.957H26.659v-5.282h3.616A2.519,2.519,0,0,1,33,201.073a2.565,2.565,0,0,1-2.728,2.641Zm11.094,7.218a5.107,5.107,0,0,0,3.963-1.586l-.791-1.055a4.4,4.4,0,0,1-3.091,1.235A3.5,3.5,0,0,1,37.84,206h8.189v-.441c0-3-1.759-5.372-4.841-5.372a5.008,5.008,0,0,0-4.931,5.281c0,3.339,2.113,5.458,5.1,5.458Zm3.168-5.9H37.93a3.312,3.312,0,0,1,3.258-3.339,3.275,3.275,0,0,1,3.342,3.342Zm11.885,5.635V203.8c0-2.464-1.759-3.432-3.873-3.432a5.318,5.318,0,0,0-4.05,1.669l.7,1.055a3.916,3.916,0,0,1,3.081-1.409c1.5,0,2.554.791,2.554,2.113v1.85a4.082,4.082,0,0,0-3.339-1.409,3.318,3.318,0,0,0-3.522,3.339,3.368,3.368,0,0,0,3.522,3.339,4.34,4.34,0,0,0,3.339-1.409v1.145Zm-4.313-.791a2.2,2.2,0,0,1-2.464-2.2,2.251,2.251,0,0,1,2.464-2.2,3.235,3.235,0,0,1,2.728,1.232v1.936a3.349,3.349,0,0,1-2.728,1.232Zm11.885,1.055a4.42,4.42,0,0,0,3.7-1.759l-1.055-.968a3.1,3.1,0,0,1-2.554,1.335c-2.113,0-3.432-1.669-3.432-3.873s1.335-3.873,3.432-3.873a2.981,2.981,0,0,1,2.554,1.335l1.055-.968a4.42,4.42,0,0,0-3.7-1.793,5.289,5.289,0,0,0,0,10.563Zm8.45,0a2.567,2.567,0,0,0,1.85-.618l-.441-1.145a1.335,1.335,0,0,1-1.055.441c-.7,0-1.055-.527-1.055-1.335v-6.233h2.026v-1.409H71.743v-2.728H70.157v2.728H68.488v1.409h1.669v6.6a2.048,2.048,0,0,0,2.29,2.29Z" transform="translate(-16.587 -131.071)" fill="#00d8ff"></path></g></g></svg>