
<svg xmlns="http://www.w3.org/2000/svg" width="65.038" height="77.232" viewBox="0 0 65.038 77.232"><g id="Group_2505" data-name="Group 2505" transform="translate(-3168.765 -9198.772)"><g id="Group_2500" data-name="Group 2500"><path id="Path_14458" data-name="Path 14458" d="M64.135,0h8.679V43.969c0,.357,0,.367-.355.367H64.13v-.493Q64.135,21.925,64.135,0Z" transform="translate(3129.668 9198.772)" fill="#2d72b7"></path><path id="Path_14459" data-name="Path 14459" d="M63.685,44.366h8.327c.345,0,.352,0,.355-.367s0-.714,0-1.072V.03h.106a4.057,4.057,0,0,0,.68.367q2.675,1.345,5.358,2.675a.446.446,0,0,1,.288.468q0,2.1,0,4.205V40.89a.446.446,0,0,1-.291.468c-1.894.936-3.781,1.885-5.666,2.831a.951.951,0,0,0-.32.2H63.54Z" transform="translate(3130.113 9198.75)" fill="#5293ce"></path><path id="Path_14460" data-name="Path 14460" d="M44.422,44.343h-.145c-1.988-.985-3.971-1.991-5.964-2.978a.493.493,0,0,1-.328-.52V7.718c0-1.362.015-2.727,0-4.089a.6.6,0,0,1,.384-.636c1.88-.921,3.74-1.86,5.6-2.794.118-.059.232-.133.345-.2h.106V43.851C44.427,44.013,44.424,44.173,44.422,44.343Z" transform="translate(3149.376 9198.772)" fill="#205b97"></path><path id="Path_14461" data-name="Path 14461" d="M0,55.6V27.056l2.927-1.478a1.027,1.027,0,0,1,.342-.138q0,15.877,0,31.752c-.7-.347-1.394-.7-2.1-1.04A12.031,12.031,0,0,0,0,55.6Z" transform="translate(3178 9179.6)" fill="#205b97"></path><path id="Path_14464" data-name="Path 14464" d="M125.51,55.692V26.859l3.892-.934q1.075-.255,2.156-.505V57.138c-.759-.143-1.505-.345-2.257-.527Z" transform="translate(3083.409 9179.614)" fill="#205b97"></path><path id="Path_14466" data-name="Path 14466" d="M150,57.148V25.43a.54.54,0,0,1,.325.1c.909.453,1.813.914,2.727,1.357a.431.431,0,0,1,.271.456V55.159a.552.552,0,0,1-.367.586c-.9.429-1.786.887-2.683,1.33C150.2,57.125,150.121,57.231,150,57.148Z" transform="translate(3064.953 9179.607)" fill="#5293ce"></path><g id="Group_2499" data-name="Group 2499" transform="translate(-57.927 42.249)"><path id="Path_14462" data-name="Path 14462" d="M436.26,49.735a.709.709,0,0,1-.68.325c-.517-.012-1.035,0-1.554,0s-.6-.123-.6-.6V43.01a3.755,3.755,0,0,0-.187-1.15.966.966,0,0,0-.877-.739,1.1,1.1,0,0,0-1.106.6,3.638,3.638,0,0,0-.448,1.791c-.012,1.971,0,3.942,0,5.912,0,.468-.113.581-.581.581h-1.769c-.34,0-.493-.15-.493-.493V39.144c0-.352.15-.493.507-.493h1.66c.372,0,.507.143.51.517s0,.739,0,1.141a1.579,1.579,0,0,0,.288-.475,2.449,2.449,0,0,1,1.564-1.308A2.726,2.726,0,0,1,436.1,40.79a6.03,6.03,0,0,1,.1,1.086.274.274,0,0,0,.052.2Z" transform="translate(2855.468 9169.822)" fill="#201c1d"></path><path id="Path_14463" data-name="Path 14463" d="M439.438,102.549h-2.6c-.35,0-.35,0-.35.34v8.029c0,.362,0,.362-.357.362h-.739c-.195,0-.246-.067-.246-.246V102.9c0-.352,0-.352-.34-.352h-2.355c-.2,0-.276-.057-.246-.246.03-.281-.121-.645.062-.823s.527-.047.8-.049h6.371Z" transform="translate(2852.29 9122.366)"></path><path id="Path_14465" data-name="Path 14465" d="M245.578,40.047a2.873,2.873,0,0,1,2.71-1.619,2.749,2.749,0,0,1,2.537,1.85c.123-.2.219-.379.328-.547a2.956,2.956,0,0,1,4.508-.471,2.515,2.515,0,0,1,.739,1.66c.128,1.441.037,2.887.052,4.331s0,2.838,0,4.257c0,.384-.111.493-.493.493h-1.875c-.308,0-.471-.145-.473-.446,0-1.956-.012-3.91,0-5.866a14.389,14.389,0,0,0-.059-1.668,1.019,1.019,0,0,0-1.36-.877,1.323,1.323,0,0,0-1,1.126,6.1,6.1,0,0,0-.113,1.244v5.89c0,.493-.111.594-.6.594h-1.673c-.431,0-.557-.123-.557-.552V43.316a4.745,4.745,0,0,0-.1-1.325,1.114,1.114,0,0,0-.985-.882,1.185,1.185,0,0,0-1.232.774,3.554,3.554,0,0,0-.2,1.091c-.111,2.2-.017,4.4-.049,6.607,0,.308-.1.414-.419.416h-1.875c-.389,0-.493-.1-.493-.493V39.141c0-.424.081-.493.493-.493h1.724c.35,0,.468.118.471.461S245.578,39.742,245.578,40.047Z" transform="translate(2994.938 9169.812)" fill="#201c1d"></path><path id="Path_14467" data-name="Path 14467" d="M313.5,43.737c0,.714.015,1.3,0,1.892a2.68,2.68,0,0,0,.69,1.85.468.468,0,0,1-.069.751c-.4.347-.8.7-1.19,1.069-.451.431-.606.436-1.057,0a3.926,3.926,0,0,1-.675-.788c-.106-.182-.192-.2-.333-.037a3.91,3.91,0,0,1-2.67,1.237,4.208,4.208,0,0,1-1.685-.192A2.668,2.668,0,0,1,304.77,47.4a4.028,4.028,0,0,1,.192-2.451,3.449,3.449,0,0,1,2.217-1.971,15.5,15.5,0,0,1,2.653-.54,2.831,2.831,0,0,0,.611-.049c.1-.034.15-.069.155-.177a3.787,3.787,0,0,0-.126-1.266,1.349,1.349,0,0,0-1.493-.8,1.567,1.567,0,0,0-1.325,1.256c-.084.325-.232.4-.564.355-.517-.074-1.037-.135-1.559-.177-.4-.032-.576-.222-.493-.606a3.478,3.478,0,0,1,2.19-2.629,5.609,5.609,0,0,1,4.065-.138,2.9,2.9,0,0,1,2.151,2.988C313.5,42.082,313.483,42.971,313.5,43.737ZM310.6,44.861v-.589c0-.143-.071-.207-.2-.177-.313.076-.636.03-.951.1a2.276,2.276,0,0,0-1.35.677,1.931,1.931,0,0,0-.288,2,1.138,1.138,0,0,0,.345.493,1.323,1.323,0,0,0,1.853-.34,3.449,3.449,0,0,0,.589-2.168Z" transform="translate(2948.392 9170.218)" fill="#201c1d"></path><path id="Path_14468" data-name="Path 14468" d="M206.444,43.338v2.217a2.826,2.826,0,0,0,.719,1.926.478.478,0,0,1-.02.709q-.739.675-1.49,1.33a.431.431,0,0,1-.6-.007,4.622,4.622,0,0,1-.911-1.04c-.076-.1-.111-.177-.246-.037a3.806,3.806,0,0,1-2.422,1.271,3.358,3.358,0,0,1-2.956-.8,3.1,3.1,0,0,1-.82-1.835,3.927,3.927,0,0,1,.108-1.685,3.387,3.387,0,0,1,2.395-2.4,15.752,15.752,0,0,1,2.629-.535,3.136,3.136,0,0,0,.611-.047c.113-.037.163-.081.163-.2a4.434,4.434,0,0,0-.126-1.215,1.328,1.328,0,0,0-1.493-.833,1.512,1.512,0,0,0-1.335,1.3.411.411,0,0,1-.493.335c-.544-.074-1.089-.145-1.633-.2-.409-.042-.544-.219-.448-.621a3.686,3.686,0,0,1,3.168-2.909,5.629,5.629,0,0,1,2.747.054,2.937,2.937,0,0,1,2.451,2.939C206.456,41.821,206.441,42.58,206.444,43.338Zm-5.73,2.811a1.542,1.542,0,0,0,.172.882,1.094,1.094,0,0,0,1.069.608,1.614,1.614,0,0,0,1.283-.924,4.755,4.755,0,0,0,.362-2.464c0-.126-.091-.15-.185-.133a10.286,10.286,0,0,0-1.232.172A1.721,1.721,0,0,0,200.714,46.149Z" transform="translate(3029.037 9170.198)" fill="#201c1d"></path><path id="Path_14469" data-name="Path 14469" d="M384.878,44.406a7.233,7.233,0,0,1,.857-3.826,3.906,3.906,0,0,1,2.941-2.1,4.286,4.286,0,0,1,2.973.547,4.577,4.577,0,0,1,1.791,2.188,8.075,8.075,0,0,1,.579,3.68,6.489,6.489,0,0,1-1.143,3.515,4.1,4.1,0,0,1-3.387,1.806,3.971,3.971,0,0,1-3.126-1.291,5.538,5.538,0,0,1-1.32-2.779A6.851,6.851,0,0,1,384.878,44.406Zm4.755,3.614a1.072,1.072,0,0,0,.771-.493,3.616,3.616,0,0,0,.569-2.1,16.275,16.275,0,0,0,.017-2,8.489,8.489,0,0,0-.33-1.919,1.29,1.29,0,0,0-1.35-.877,1.132,1.132,0,0,0-1.015.707,4.24,4.24,0,0,0-.409,1.934,14.107,14.107,0,0,0,.1,2.69,3.943,3.943,0,0,0,.424,1.392A1.209,1.209,0,0,0,389.633,48.02Z" transform="translate(2887.94 9169.822)" fill="#201c1d"></path><path id="Path_14470" data-name="Path 14470" d="M352.687,41.505h-3.232c-.337,0-.461-.069-.493-.392a7.145,7.145,0,0,1,0-1.623c.037-.261.2-.34.426-.34h6.344c.468,0,.581.113.581.579,0,.246-.017.493,0,.722a1.919,1.919,0,0,1-.421,1.311c-.707,1-1.389,2.018-2.079,3.028l-1.2,1.781c-.039.057-.118.108-.086.185s.14.054.214.052a6.92,6.92,0,0,1,3.358.8.717.717,0,0,1,.456.7v1.525c0,.384-.246.544-.6.377a7.81,7.81,0,0,0-2.372-.759,7.223,7.223,0,0,0-3.786.475c-.246.1-.493.227-.759.323a.333.333,0,0,1-.453-.271,12.849,12.849,0,0,1,.044-2.133,2.441,2.441,0,0,1,.478-.944q1.724-2.56,3.449-5.114A.686.686,0,0,0,352.687,41.505Z" transform="translate(2915.31 9169.268)" fill="#201c1d"></path><path id="Path_14471" data-name="Path 14471" d="M266.341,106.352v-4.523c0-.246.037-.338.323-.377a16.089,16.089,0,0,1,3.055-.135,5.293,5.293,0,0,1,3.074.985,4.082,4.082,0,0,1,1.574,2.594,6.016,6.016,0,0,1-.419,3.676,4.166,4.166,0,0,1-2.464,2.274,9.639,9.639,0,0,1-2.249.441c-.739.069-1.478-.039-2.217-.025-.182,0-.365-.064-.554-.049-.131,0-.138-.081-.135-.177v-.7Q266.341,108.345,266.341,106.352Zm1.34-.03v3.639c0,.1-.044.222.131.246a7.435,7.435,0,0,0,2.528-.148,3.294,3.294,0,0,0,2.3-1.84,5.06,5.06,0,0,0,.32-3.153,3.1,3.1,0,0,0-.717-1.513,3.594,3.594,0,0,0-2.668-1.163,9.541,9.541,0,0,0-1.582.042c-.246.03-.315.1-.313.342.01,1.175,0,2.36,0,3.547Z" transform="translate(2977.281 9122.431)"></path><path id="Path_14472" data-name="Path 14472" d="M341.83,106.457v-4.631c0-.246.069-.31.3-.293a5.709,5.709,0,0,0,.776,0c.207-.012.276.049.273.266v3.535c0,.278.081.338.342.335,1.348-.012,2.7,0,4.043,0,.219,0,.288-.054.286-.281v-3.56c0-.246.071-.308.3-.293.283.02.572,0,.857,0,.138,0,.2.044.187.185v9.344c0,.276-.076.36-.342.335a4.3,4.3,0,0,0-.722,0c-.219.017-.288-.054-.286-.281v-3.988c0-.34,0-.342-.35-.342h-4.016c-.232,0-.3.052-.3.293V111.1c0,.246-.076.323-.315.305a5.834,5.834,0,0,0-.776,0c-.2,0-.261-.052-.246-.246v-2.491Q341.83,107.558,341.83,106.457Z" transform="translate(2920.38 9122.255)"></path><path id="Path_14473" data-name="Path 14473" d="M201.931,106.507a2.4,2.4,0,0,1,1.35,1.8,24.26,24.26,0,0,0,.739,2.71c.059.163.027.219-.153.212h-.936a.246.246,0,0,1-.288-.2,15.354,15.354,0,0,1-.638-2.316,2.535,2.535,0,0,0-.594-1.232,1.665,1.665,0,0,0-1.165-.493c-.347-.02-.7,0-1.045,0-.209,0-.246.069-.246.261v3.668c0,.246-.064.333-.31.31a4.29,4.29,0,0,0-.695,0c-.217.017-.3-.047-.291-.278.015-.616,0-1.232,0-1.848v-7.07c0-.527,0-.535.493-.606a12.4,12.4,0,0,1,2.606-.1,3.5,3.5,0,0,1,1.9.572,2.362,2.362,0,0,1,1.049,1.929,2.71,2.71,0,0,1-.594,1.877,2.806,2.806,0,0,1-.921.7C202.131,106.43,202.049,106.457,201.931,106.507ZM198.95,104.2v1.552c0,.155.037.232.207.219.493-.03.985.017,1.463-.047a1.787,1.787,0,0,0,1.757-1.951,1.429,1.429,0,0,0-.818-1.328,3.7,3.7,0,0,0-2.431-.227c-.155.025-.182.091-.18.227,0,.52,0,1.047,0,1.554Z" transform="translate(3029.034 9122.429)"></path><path id="Path_14474" data-name="Path 14474" d="M233.722,106.472v-4.659c0-.224.064-.283.283-.283q2.4.012,4.792,0c.214,0,.31.044.288.276a3.749,3.749,0,0,0,0,.616c.012.19-.059.246-.246.246H235.39c-.246,0-.337.052-.33.32.02.83.012,1.66,0,2.491,0,.2.062.246.246.246H238.6c.192,0,.278.042.261.246a3.664,3.664,0,0,0,0,.589c.015.192-.062.246-.246.246h-3.24c-.246,0-.333.057-.33.32.017.963.015,1.926,0,2.892,0,.227.069.281.288.281H239c.217,0,.305.052.286.281a4.472,4.472,0,0,0,0,.643c0,.17-.062.209-.219.209h-5.141c-.219,0-.217-.111-.217-.266Q233.725,108.79,233.722,106.472Z" transform="translate(3001.865 9122.255)"></path><path id="Path_14475" data-name="Path 14475" d="M309.981,110.984a5.1,5.1,0,0,1-2.513-.589c-.138-.074-.18-.131-.113-.283.1-.246.165-.493.259-.722.054-.136.1-.116.187-.067a5.42,5.42,0,0,0,1.909.581,2.252,2.252,0,0,0,2.005-.843,1.651,1.651,0,0,0-.788-2.363c-.478-.246-.985-.379-1.478-.6a3.322,3.322,0,0,1-1.764-1.569,2.658,2.658,0,0,1,.448-2.661,3.3,3.3,0,0,1,2.424-1.017,4.949,4.949,0,0,1,2.151.377c.14.059.195.111.126.273a7.049,7.049,0,0,0-.246.751c-.037.116-.071.19-.219.108a3.328,3.328,0,0,0-1.574-.406,1.863,1.863,0,0,0-1.754.761,1.408,1.408,0,0,0,.648,2c.645.37,1.365.581,2.01.951a2.713,2.713,0,0,1-.264,5.048A4.075,4.075,0,0,1,309.981,110.984Z" transform="translate(2946.385 9122.77)"></path><path id="Path_14476" data-name="Path 14476" d="M402.682,106.452v-4.634c0-.217.052-.288.278-.288q2.385.015,4.767,0c.217,0,.281.069.264.273a3.7,3.7,0,0,0,0,.589c.017.209-.054.273-.269.271h-3.348c-.352,0-.352,0-.352.34v2.624c0,.2.059.246.246.246h3.188c.195,0,.278.044.259.246a3.682,3.682,0,0,0,0,.589c.015.195-.064.246-.246.246h-3.161c-.246,0-.3.059-.3.3v3.855c0,.224-.042.325-.291.3a5.464,5.464,0,0,0-.8,0c-.2.012-.246-.062-.246-.246C402.685,109.576,402.682,108.014,402.682,106.452Z" transform="translate(2874.528 9122.255)"></path><path id="Path_14477" data-name="Path 14477" d="M384.45,106.45v-4.631c0-.219.052-.3.281-.286a5.625,5.625,0,0,0,.8,0c.222-.015.271.074.264.276-.012.409,0,.82,0,1.232v8.034c0,.246-.057.352-.323.328a4.887,4.887,0,0,0-.776,0c-.209.015-.246-.069-.246-.261C384.455,109.574,384.45,108.012,384.45,106.45Z" transform="translate(2888.26 9122.254)"></path></g><path id="Path_14478" data-name="Path 14478" d="M13.255,25.47c.717.118,1.414.328,2.119.493,1.328.315,2.653.623,3.974.948V55.727L13.4,57.175c-.052.012-.1.03-.153.047Q13.255,41.347,13.255,25.47Z" transform="translate(3168.014 9179.577)" fill="#5293ce"></path></g></g></svg>