
<svg xmlns="http://www.w3.org/2000/svg" width="68.235" height="79.866" viewBox="0 0 68.235 79.866"><g id="vuejs-logo" transform="translate(-9.106 0)"><path id="Path_14124" data-name="Path 14124" d="M31.559,97.953a1.187,1.187,0,0,0-.656.2.793.793,0,0,0-.38.647.449.449,0,0,0,.052.273l-.019-.047,3.984,12.926a.913.913,0,0,0,.435.534,1.247,1.247,0,0,0,.608.147,1.06,1.06,0,0,0,1.06-.676h0l3.98-12.974V98.93c0,.065.019.028.019-.114a.8.8,0,0,0-.39-.648,1.222,1.222,0,0,0-.685-.215.817.817,0,0,0-.771.537l0,0-3.213,10.724-3.225-10.7a.728.728,0,0,0-.327-.441.907.907,0,0,0-.471-.119Zm31.732.666a1.1,1.1,0,1,0,1.131,1.094A1.119,1.119,0,0,0,63.29,98.619Zm-9.341,4.138A3.915,3.915,0,0,0,50,106.578v2.136a3.723,3.723,0,0,0,1.255,2.86,4.731,4.731,0,0,0,3.156,1.073,4.868,4.868,0,0,0,2.238-.493,2.4,2.4,0,0,0,.652-.475.879.879,0,0,0,.28-.6.908.908,0,0,0-.22-.577.808.808,0,0,0-.625-.325.9.9,0,0,0-.484.165c-.132.081-.257.171-.407.257a2.592,2.592,0,0,1-1.4.34,2.908,2.908,0,0,1-1.879-.6,1.952,1.952,0,0,1-.709-1.572v-.4h4a2.341,2.341,0,0,0,1.311-.261,1.744,1.744,0,0,0,.659-1.574,3.823,3.823,0,0,0-3.877-3.783Zm15.032,0a3.432,3.432,0,0,0-2.544.934,2.821,2.821,0,0,0-.779,1.971,2.311,2.311,0,0,0,.853,1.89,5.047,5.047,0,0,0,1.723.779,7.143,7.143,0,0,1,1.547.574,1.059,1.059,0,0,1,.588,1.028.834.834,0,0,1-.322.706,2.124,2.124,0,0,1-1.332.336,2.79,2.79,0,0,1-1.581-.4c-.164-.1-.3-.206-.431-.3a.86.86,0,0,0-.5-.2.7.7,0,0,0-.567.325.961.961,0,0,0-.183.557,1,1,0,0,0,.3.665,2.449,2.449,0,0,0,.7.512,5.075,5.075,0,0,0,2.313.506,3.834,3.834,0,0,0,2.461-.734,2.555,2.555,0,0,0,.92-2.036,2.636,2.636,0,0,0-.844-2.059,4.563,4.563,0,0,0-1.741-.861,10.666,10.666,0,0,1-1.573-.532c-.389-.2-.572-.39-.572-.821a1.078,1.078,0,0,1,.33-.757A1.725,1.725,0,0,1,69,104.429a3.051,3.051,0,0,1,1.2.243c.153.062.286.128.412.182a.957.957,0,0,0,.409.108.771.771,0,0,0,.631-.384,1.012,1.012,0,0,0,.194-.575.746.746,0,0,0-.342-.585,2.485,2.485,0,0,0-.666-.345,5.579,5.579,0,0,0-1.857-.316Zm-27.258.115a.858.858,0,0,0-.94.787v5.092a3.934,3.934,0,0,0,7.869,0v-5.111a.727.727,0,0,0-.3-.569,1.018,1.018,0,0,0-.622-.2,1.056,1.056,0,0,0-.626.2.72.72,0,0,0-.313.573v5.111a2.074,2.074,0,1,1-4.147,0V103.66a.727.727,0,0,0-.3-.566.989.989,0,0,0-.623-.221Zm21.567,0a1.026,1.026,0,0,0-.628.192.736.736,0,0,0-.293.577v9.383a4.653,4.653,0,0,1-.2,1.652c-.155.357-.337.516-.858.516a.873.873,0,0,0-.845.884.851.851,0,0,0,.228.591.972.972,0,0,0,.711.272,2.493,2.493,0,0,0,2.2-1.153,5.17,5.17,0,0,0,.628-2.762v-9.383a.73.73,0,0,0-.317-.583,1.071,1.071,0,0,0-.624-.186ZM53.93,104.41A2.085,2.085,0,0,1,56,106.5a.777.777,0,0,1-.024.225c-.012.034-.011.03-.028.041a1.586,1.586,0,0,1-.591.072h-3.5v-.414a2.047,2.047,0,0,1,2.073-2.015Zm5.912,5.824a1.2,1.2,0,1,0,1.169,1.207A1.2,1.2,0,0,0,59.842,110.234Z" transform="translate(-8.105 -37.073)" fill="#35495e"></path><g id="Group_2456" data-name="Group 2456" transform="translate(9.106 0)"><path id="Path_14125" data-name="Path 14125" d="M0,7.663l26.577.085,7.552,13.045L41.822,7.747l26.413-.084L34.206,66.377ZM67.691,8l-12.986.011L34.194,43.225,13.7,8.013.5,8,34.2,65.518ZM54.285,8,42.16,8.087,34.135,21.226l-7.9-13.139L14.085,8,34.2,42.369ZM13.859,7.907l12.262,0,8.015,13.3,7.987-13.3,12.251,0L34.2,42.91" transform="translate(0 -7.663)" fill="none"></path><path id="Path_14126" data-name="Path 14126" d="M22.3,8.056l12.262,0,8.015,13.3,7.987-13.3,12.251,0-20.177,35Z" transform="translate(-8.439 -7.812)" fill="#35495e"></path><path id="Path_14127" data-name="Path 14127" d="M.781,8.152,14.143,8.06l20.338,35,20.178-35,13.386.014L34.479,65.682Z" transform="translate(-0.296 -7.813)" fill="#41b883"></path></g></g></svg>